<?xml version="1.0" standalone="no"?>
<!DOCTYPE svg PUBLIC "-//W3C//DTD SVG 1.1//EN" "http://www.w3.org/Graphics/SVG/1.1/DTD/svg11.dtd" >
<!--
2013-9-30: Created.
-->
<svg>
<metadata>
Created by iconfont
</metadata>
<defs>

<font id="iconfont" horiz-adv-x="1024" >
  <font-face
    font-family="iconfont"
    font-weight="500"
    font-stretch="normal"
    units-per-em="1024"
    ascent="896"
    descent="-128"
  />
    <missing-glyph />
    
    <glyph glyph-name="x" unicode="x" horiz-adv-x="1001"
d="M281 543q-27 -1 -53 -1h-83q-18 0 -36.5 -6t-32.5 -18.5t-23 -32t-9 -45.5v-76h912v41q0 16 -0.5 30t-0.5 18q0 13 -5 29t-17 29.5t-31.5 22.5t-49.5 9h-133v-97h-438v97zM955 310v-52q0 -23 0.5 -52t0.5 -58t-10.5 -47.5t-26 -30t-33 -16t-31.5 -4.5q-14 -1 -29.5 -0.5
t-29.5 0.5h-32l-45 128h-439l-44 -128h-29h-34q-20 0 -45 1q-25 0 -41 9.5t-25.5 23t-13.5 29.5t-4 30v167h911zM163 247q-12 0 -21 -8.5t-9 -21.5t9 -21.5t21 -8.5q13 0 22 8.5t9 21.5t-9 21.5t-22 8.5zM316 123q-8 -26 -14 -48q-5 -19 -10.5 -37t-7.5 -25t-3 -15t1 -14.5
t9.5 -10.5t21.5 -4h37h67h81h80h64h36q23 0 34 12t2 38q-5 13 -9.5 30.5t-9.5 34.5q-5 19 -11 39h-368zM336 498v228q0 11 2.5 23t10 21.5t20.5 15.5t34 6h188q31 0 51.5 -14.5t20.5 -52.5v-227h-327z" />
    

    
    <glyph glyph-name="quanbudingdan" unicode="&#58923;" d="M875 771l-62.5 0L812.5 833.5c0 34.5-28 62.5-62.5 62.5L125 896C90.5 896 62.5 868 62.5 833.5l0-750c0-34.5 28-62.5 62.5-62.5l62.5 0 0-62.5c0-34.5 28-62.5 62.5-62.5l625 0c34.5 0 62.5 28 62.5 62.5L937.5 708.5C937.5 743 909.5 771 875 771zM403.625 771 656.25 771C673.4375 771 687.5 757 687.5 739.75S673.4375 708.5 656.25 708.5L403.625 708.5c-17.25 0-31.25 14-31.25 31.25S386.375 771 403.625 771zM216.125 583.5 656.25 583.5C673.4375 583.5 687.5 569.5 687.5 552.25S673.4375 521 656.25 521L216.125 521c-17.25 0-31.25 14-31.25 31.25S198.875 583.5 216.125 583.5zM216.125 396 656.25 396C673.4375 396 687.5 382 687.5 364.75 687.5 347.5625 673.4375 333.5 656.25 333.5L216.125 333.5c-17.25 0-31.25 14.0625-31.25 31.25C184.875 382 198.875 396 216.125 396zM216.125 146c-17.25 0-31.25 14.0625-31.25 31.25s14 31.25 31.25 31.25L656.25 208.5c17.1875 0 31.25-14.0625 31.25-31.25S673.4375 146 656.25 146L216.125 146zM875-41.5 250-41.5l0 62.5 500 0c34.5 0 62.5 28 62.5 62.5L812.5 708.5l62.5 0L875-41.5z"  horiz-adv-x="1000" />

    
    <glyph glyph-name="introduce" unicode="&#58900;" d="M499.137 851.4192l29.080476 0c50.4699-2.3424 100.7498-12.1208 147.6649-31.1319 97.8267-38.7048 180.3881-114.1836 227.9138-208.024 30.2098-58.8101 46.1976-124.5945 47.6157-190.6357l0-15.677371c-1.3991-65.1878-16.9592-130.1188-46.4344-188.3473-28.7057-57.3571-70.3512-108.1487-120.7361-147.8288-51.5472-40.6554-112.3754-69.4959-176.5385-83.4624-26.0564-5.881-52.6934-8.6152-79.3125-10.2061l-29.114454 0c-34.8948 1.8467-69.7206 6.5476-103.3672 16.1381-81.4831 22.5827-155.8867 69.6488-211.4513 133.3476-39.0821 44.4669-68.9161 97.0372-87.1585 153.367-13.3515 40.9622-20.1572 83.9251-21.2345 126.9729l0 15.642394c1.557 79.9068 25.064 159.3 68.1466 226.6753 45.6829 71.9912 112.7872 130.2367 190.6965 164.9582C386.4528 836.6482 442.667 848.871 499.137 851.4192zM415.5853 758.0575c-27.7303-34.8424-45.8358-76.1454-60.5384-117.8931 20.6349-5.1815 41.8184-7.437 62.813-10.5998 26.0384-2.6842 52.1448-5.0596 78.3541-5.2664-0.017 63.477 0.017 126.9549-0.017 190.4489C462.8741 807.7219 436.0842 784.1468 415.5853 758.0575zM531.2616 624.3162c35.4234 0.6326 70.8329 3.5726 105.8276 9.2487 11.9014 1.522 23.6969 3.7445 35.3385 6.6345-17.199 48.8599-39.3559 97.5159-75.7028 135.2623-17.7647 18.6174-39.9196 33.884-65.4113 39.2864C531.2096 751.2701 531.2966 687.7932 531.2616 624.3162zM380.9993 793.9252c-61.8896-21.5754-118.3426-58.5873-162.7773-106.7806 32.5013-17.1644 67.3271-29.8498 102.8885-38.9616 18.5672 55.9721 44.6226 111.3285 86.5938 153.6748C398.5741 800.062 389.8037 796.8832 380.9993 793.9252zM619.6003 802.1147c8.7364-8.0525 15.762-17.678 23.3891-26.7219 28.6008-38.2081 48.606-82.1453 63.4616-127.3127 35.5434 9.2657 70.2662 22.0201 102.9054 38.9616C758.5458 742.1073 692.0712 782.8297 619.6003 802.1147zM194.8849 659.7732c-50.298-65.2887-80.1489-146.1179-83.3459-228.5381 58.3338 0.1019 116.6677 0.034 175.0005 0.034 1.1283 61.7501 9.0442 123.4323 24.5853 183.2338C270.8275 625.1027 231.4895 639.8057 194.8849 659.7732zM716.3497 614.5029c15.5421-59.8015 23.4561-121.4836 24.5674-183.2168 58.3688 0.017 116.7366 0 175.1045 0-3.4358 82.4031-33.0649 163.2833-83.4998 228.5211C796.0039 639.7038 756.5781 625.2056 716.3497 614.5029zM321.5192 431.423c58.2309-0.3088 116.4628-0.052 174.6937-0.1369 0 52.6723 0 105.3456 0 158.0179-50.6907 0.9394-101.4174 6.2058-150.9808 17.0614C330.1707 549.3161 322.8194 490.369 321.5192 431.423zM531.2616 589.3209c0-52.6893 0-105.3616 0.017-158.0349 58.2309 0.1029 116.4618-0.1879 174.6947 0.1539-1.3172 58.947-8.6685 117.8931-23.7309 174.9604C632.696 595.4758 581.9523 590.2613 531.2616 589.3209zM111.504 396.2558c3.2829-82.4191 33.0649-163.2483 83.3969-228.5391 36.5707 20.0194 75.9606 34.6365 116.224 45.3043-15.5581 59.8015-23.4061 121.5006-24.6193 183.2348C228.1727 396.2228 169.8388 396.2228 111.504 396.2558zM321.5372 396.1199c1.2992-58.965 8.5645-117.981 23.7819-175.0293 49.4935 11.0445 100.2371 16.1401 150.8779 17.1134 0.017 52.6723 0.017 105.3626 0.017 158.0359C437.982 396.1539 379.7501 396.3927 321.5372 396.1199zM531.2616 396.2398c0-52.6733 0-105.3456 0-158.0189 50.7257-0.9214 101.4524-6.2558 151.0318-17.0434 14.8405 57.1513 22.6875 116.1143 23.4561 175.1473C647.5875 396.1199 589.4255 396.2898 531.2616 396.2398zM740.901 396.2398c-1.0243-61.7341-9.0442-123.4163-24.5324-183.2178 40.2434-10.6158 79.6173-25.2339 116.17-45.2873 50.4349 65.2218 80.047 146.1029 83.4828 228.4891C857.6537 396.2558 799.2689 396.2228 740.901 396.2398zM355.0808 187.4464c17.0451-48.9808 39.3729-97.6678 75.7378-135.4522 17.7467-18.5814 39.9036-33.8311 65.3784-39.2004 0.052 63.461 0 126.9369 0.017 190.4149C448.8391 202.2693 401.4293 197.4466 355.0808 187.4464zM531.2616 203.2277c0.017-63.479-0.035-126.9729 0.035-190.4499 33.2508 7.0242 60.0248 30.5163 80.4907 56.5696 27.7823 34.8933 46.0057 76.2483 60.6234 118.0989-21.2505 5.1295-42.9806 7.6068-64.5729 10.7357C582.363 200.6614 556.8713 203.0708 531.2616 203.2277zM218.153 140.4663c50.7936-55.0307 117.2323-95.804 189.6872-115.004-41.9733 42.4502-68.1816 97.8067-86.7148 153.8977C285.4801 170.368 250.8252 157.3058 218.153 140.4663zM706.417 179.3949c-18.6521-56.1259-44.8105-111.5514-86.8687-154.0526 72.4049 19.3699 138.8925 59.9893 189.7062 115.038C776.7872 157.5786 741.9434 170.1621 706.417 179.3949z"  horiz-adv-x="1000" />

    
    <glyph glyph-name="collection" unicode="&#58901;" d="M485.2398 708.6991c14.7323 31.2494 38.8444 31.2494 53.5747 0l63.8157-135.3288c14.7313-31.2463 54.8465-61.0806 89.1249-66.2917l137.8437-20.9592c34.2774-5.2101 42.5083-29.6899 18.2989-54.3969l-101.8982-103.9483c-24.2278-24.7091-39.4691-72.8023-33.8883-106.8677l24.5473-149.7324c5.5818-34.0716-14.679-48.2826-45.0314-31.5781l-124.418 68.4636c-30.3524 16.6963-80.0143 16.6963-110.3667 0l-124.4252-68.4636c-30.3452-16.7045-50.6163-2.4945-45.0273 31.5781l24.533 149.7324c5.589 34.0664-9.6625 82.1596-33.8811 106.8677l-101.8798 103.9462c-24.2186 24.7071-15.9877 49.1878 18.2958 54.398l137.8406 20.9592c34.2835 5.2101 74.3905 35.0454 89.1228 66.2917L485.2398 708.6991z"  horiz-adv-x="1024" />

    
    <glyph glyph-name="shanchu" unicode="&#58902;" d="M710.2592 530.9312l-17.056 0 0-428.3264-56.2816 0L636.9216 530.9312 543.1168 530.9312l0-428.3264-56.2816 0L486.8352 530.9312 393.0368 530.9312l0-428.3264-56.2816 0L336.7552 530.9312l-35.8144 0c-42.3808 0-76.7488 0.6144-76.7488 0l0-447.5264c0-41.2032 34.368-74.5984 76.7488-74.5984l409.312 0c42.3936 0 76.7424 33.3952 76.7424 74.5984L786.9952 530.9312C787.0016 534.08 752.6528 530.9312 710.2592 530.9312zM823.8656 665.4016 655.68 665.4016l0 45.7728c0 26.528-47.4112 48.0256-75.0464 48.0256l-150.08 0c-27.6224 0-75.04-21.4976-75.04-48.0256l0-45.7728L187.36 665.4016c-21.1008 0-38.2016-16.8-38.2016-37.5232 0-20.7168 17.0944-37.5168 38.2016-37.5168l636.5056 0c21.0816 0 38.176 16.8 38.176 37.5168C862.0352 648.6016 844.9408 665.4016 823.8656 665.4016zM580.64 665.4016l-150.08 0L430.56 684.16l150.08 0L580.64 665.4016z"  horiz-adv-x="1024" />

    
    <glyph glyph-name="dianhua" unicode="&#58991;" d="M704 172c-64-64-64-128-128-128s-128 64-192 128-128 128-128 192 64 64 128 128-128 256-192 256-192-192-192-192c0-128 131.488-387.488 256-512s384-256 512-256c0 0 192 128 192 192s-192 256-256 192z"  horiz-adv-x="1024" />

    
    <glyph glyph-name="tishi" unicode="&#58937;" d="M513.35168 830.579712c-246.829056 0-446.915584-200.107008-446.915584-446.905344 0-246.848512 200.086528-446.920704 446.915584-446.920704 246.818816 0 446.910464 200.072192 446.910464 446.920704C960.262144 630.473728 760.170496 830.579712 513.35168 830.579712zM513.292288-3.72224c-213.955584 0-387.411968 173.446144-387.411968 387.406848 0 213.955584 173.45536 387.426304 387.411968 387.426304 213.976064 0 387.421184-173.47072 387.421184-387.426304C900.713472 169.723904 727.268352-3.72224 513.292288-3.72224zM605.638656 266.047488c-10.829824 0-53.36064-62.790656-76.546048-62.790656-6.192128 0-9.261056 5.169152-9.261056 10.333184 0 11.812864 8.496128 30.30016 13.129728 41.378816l55.660544 144.024576c27.84256 71.6544-7.7312 90.842112-40.976384 90.842112-44.829696 0-85.037056-21.41184-115.958784-49.477632-10.05568-9.613312-35.017728-46.891008-35.017728-61.018112 0-4.707328 4.712448-10.21952 10.22976-10.21952 14.132224 0 41.786368 71.972864 70.393856 71.972864 6.197248 0 13.159424-6.659072 7.7312-19.93216l-54.095872-130.006016c-5.4272-12.563456-31.711232-55.645184-31.711232-91.09504 0-28.060672 19.325952-58.103808 47.164416-58.103808 78.08512 0 168.51968 91.58656 168.51968 113.01376C614.899712 261.613568 609.502208 266.047488 605.638656 266.047488zM590.155776 625.75104c-34.010112 0-63.386624-26.586112-63.386624-59.081728 0-30.290944 20.875264-50.24256 52.586496-50.24256 34.779136 0 64.156672 25.116672 64.156672 59.081728C643.51232 605.80864 621.09696 625.75104 590.155776 625.75104z"  horiz-adv-x="1024" />

    
    <glyph glyph-name="lianxiwomen" unicode="&#58903;" d="M366.255543 387.2768l59.439299 0c12.04224 0 17.282194-23.651962 9.291581-32.365227-5.563733-6.065493-50.459794 0-59.440762 0-16.529798 0-9.290118 18.218423-9.290118 32.365227zm119.522743 0l49.10275 0c7.271375 0 8.856625-27.744549 4.68797-32.365227-4.511451-4.998095-41.60707 0-49.098362 0-9.727512 0-4.692358 24.034743-4.692358 32.365227zm104.56893 0l59.464168 0c12.040777 0 17.286095-23.647573 9.294994-32.365227-5.563733-6.065493-50.483688 0-59.46368 0-16.534674 0-9.295482 18.214522-9.295482 32.365227zm-224.091672-62.059764l64.351573 0c6.311253 0 9.233554-43.99104 4.379307-48.559543-7.416198-6.992457-53.315779 0-64.353036 0-9.39008 0-4.377844 39.191406-4.377844 48.559543zm119.522743 0l52.538514 0c0.052663 0 4.90301-45.06819 1.252206-48.559543-5.959192-5.71197-43.439055 0-52.534613 0-2.608274 0-1.256107 42.653501-1.256107 48.559543zm104.56893 0l64.374979 0c6.31613 0 9.23843-43.985676 4.384183-48.559543-7.41571-6.992457-53.338697 0-64.375954 0-9.40032 0-4.383208 39.186042-4.383208 48.559543zm-224.091672-78.221897l64.351573 0c6.515078 0 9.005349-40.725943 4.379307-45.85667-5.917257-6.568229-54.429013 0-64.353036 0-9.418362 0-4.377844 36.724053-4.377844 45.85667zm119.522743 0l52.538514 0c0.299886 0 4.564114-42.120533 1.252206-45.85667-4.754286-5.362834-44.314819 0-52.534613 0-2.622903 0-1.256107 40.20224-1.256107 45.85667zm104.56893 0l64.374979 0c6.521417 0 9.010712-40.725943 4.384183-45.85667-5.915794-6.57213-54.452907 0-64.375954 0-9.42909 0-4.383208 36.720152-4.383208 45.85667zm-170.315581 218.516724l0 70.091337c0 16.530773-36.305189 8.134949-49.954133 8.134949-4.703086 0-57.641448 0.930865-57.641448-0.83968l0-81.67619c0-32.945006-39.136305-71.597592-56.537478-98.127482-25.910126-39.507383-51.819764-79.02013-77.72989-118.522149-18.62461-28.404785-45.010651-61.082088-45.010651-93.341501 0-20.873996-8.956587-42.688122-8.956587-65.171749 0-14.51008-6.673067-103.428876 5.18339-103.428876l635.055543 0 116.639451 0 19.627154 0c0.904046 0 0.433006 52.585813 0.433006 56.654507 0 32.268678 1.931947 65.985097-2.984229 97.096168-1.583787 10.040564-1.337051 30.899931-7.471299 36.436846-4.641158 4.190598-9.090682 20.335177-13.454872 28.320427-8.348526 15.264914-16.506392 32.363276-26.781501 47.359512-26.167589 38.198613-52.335177 76.397714-78.501303 114.596815-14.226773 20.77501-28.451596 41.544168-42.687634 62.319177-3.603505 5.267261-16.362057 18.023863-16.362057 24.733989l0 69.112198c0 21.487421 5.181928 24.477989-16.344503 24.477989l-77.373928 0c-19.061516 0-10.879269-18.383238-10.879269-35.208533 0-7.293806 4.72064-43.017752-3.702979-43.017752l-59.56413 0-125.001143 0zm-158.37379 32.369128c-67.250956-41.161387-164.066743-31.51872-242.038979-26.9824 0-31.022811-1.60963-57.863314 16.423985-74.177097 19.09565-17.278293 43.167939-25.63267 76.20803-25.63267 16.653653 0 32.277455 3.392366 47.797882 5.392091 13.383192 1.723733 34.653623 10.795886 43.320564 10.795886 22.52605 0 32.297935 25.201128 44.828282 36.417829 16.267947 14.541775 13.460236 49.929265 13.460236 74.186362zm744.07741-26.9824c-45.876663 0-92.532053-2.707749-137.46176-2.707749-42.320945 0-78.605653 23.23651-119.527131 32.378392 0-28.943604-1.342415-57.815528 11.959832-75.538042 12.731733-16.956952 28.623238-29.561905 53.776091-40.448 38.63747-16.725821 95.902476-17.178819 137.481265-8.102278 27.45149 5.9904 43.124541 21.539596 50.772846 48.550278 3.927284 13.847893 2.998857 30.101211 2.998857 45.867398zm-53.771703 196.910324c-135.929661 46.103406-274.836724 59.889859-422.12157 66.547322-77.53923 3.505006-168.73472-0.141897-244.985661-15.431192-38.764251-7.767771-88.962682-9.345219-124.806095-25.470293-24.910019-11.206949-56.841265-10.333623-80.676084-25.645836-22.421211-14.401341-35.834149-68.668952-44.824381-97.102019-5.791939-18.303756-14.929432-42.762728-14.929432-62.053912 0-13.616274 148.712107-1.90464 170.342888 2.698484 18.799665 3.996526 39.560046 9.775299 56.761295 17.547459 18.028251 8.145189 13.164739 14.291139 17.904396 31.012084 5.369661 18.932297 21.398187 32.076069 41.85917 40.490423 80.73411 33.204907 188.652983 24.251733 282.371413 24.251733 36.132084 0 71.009524-18.888899 104.597211-18.888899 12.436236 0 21.969189-10.521356 31.38755-16.171886 1.485288-0.889417 19.741257-21.591771 19.409676-21.591771 2.231345 0 4.492434-16.32451 4.492434-20.218149 0-15.892968 24.58624-18.052145 38.845196-22.942964 18.937661-6.491672 44.643962-16.171886 64.242834-16.171886 18.70019 0 37.057585-4.285684 55.285272-5.390629 33.282926-2.022156 65.66083 7.072914 98.615589 5.390629-11.831589 59.213531-31.840549 103.857006-53.771703 159.141303z"  horiz-adv-x="1024" />

    
    <glyph glyph-name="lianmengtuiguang" unicode="&#58939;" d="M441.8816 320.45056l-45.396992 0 0-39.02464 28.177408 0c12.522496 0 18.245632 5.632 17.21856 16.91136L441.880576 320.45056zM413.703168 209.881088l39.135232 0 0-55.934976-39.135232 0 0 55.934976ZM396.484608 378.98752l45.396992 0 0-36.422656-45.396992 0 0 36.422656ZM432.489472 538.242048l-40.700928 0 0-45.529088c13.550592 0 27.12576 1.301504 40.700928 3.902464L432.489472 538.242048zM391.788544 673.526784l40.700928 0 0-41.6256-40.700928 0 0 41.6256ZM391.788544 605.883392l40.700928 0 0-41.6256-40.700928 0 0 41.6256ZM495.105024 209.881088l39.136256 0 0-55.934976-39.136256 0 0 55.934976ZM892.746752 755.581952 513.13664 825.18016l-372.329472-69.598208-33.186816-4.87936 0-450.013184c0-26.986496 7.02976-53.829632 21.067776-80.53248 14.019584-26.724352 32.367616-52.605952 55.030784-77.696 22.665216-25.088 48.417792-48.835584 77.302784-71.233536 28.862464-22.4 58.266624-42.368 88.223744-59.887616 29.930496-17.544192 58.806272-32.134144 86.59968-43.715584 27.783168-11.606016 52.197376-19.56352 73.25184-23.88992l8.905728-1.60768 9.706496 1.60768c20.503552 4.3264 44.38016 12.283904 71.627776 23.88992 27.255808 11.582464 55.304192 26.172416 84.179968 43.715584 28.869632 17.519616 57.327616 37.487616 85.384192 59.887616 28.0576 22.397952 53.02784 46.145536 74.873856 71.233536 21.860352 25.090048 39.524352 50.971648 53.015552 77.696 13.481984 26.701824 20.238336 53.545984 20.238336 80.53248L917.028864 750.702592 892.746752 755.581952zM330.73664 488.809472l20.349952 1.301504L351.086592 673.526784l-17.21856 0 0 27.318272 154.976256 0 0-27.318272-17.21856 0L471.625728 501.818368c7.288832 1.727488 15.653888 3.027968 25.046016 3.902464l0-24.716288c-2.10432-0.874496-4.182016-1.747968-6.260736-2.60096-5.234688-0.874496-11.497472-2.174976-18.78528-3.903488l0-55.934976L432.489472 418.56512l0 48.130048c-24.018944-3.475456-57.920512-6.504448-101.752832-9.105408L330.73664 488.809472zM437.185536 258.01216l-82.966528 0L354.219008 403.703808l129.929216 0 0-104.066048C485.17632 271.020032 469.521408 257.138688 437.185536 258.01216zM693.914624 129.229824l-358.48192 0 0 24.716288 31.309824 0 0 83.252224 294.299648 0 0-83.252224 32.873472 0L693.915648 129.229824zM512.326656 319.15008l0 87.154688 162.801664 0 0-118.3744c1.028096-27.764736-15.140864-41.198592-48.526336-40.326144l-34.440192 0L592.161792 269.718528l17.219584 0c13.549568-0.873472 19.811328 4.330496 18.784256 15.609856l0 9.106432-73.5744 0c-5.234688-23.414784-26.611712-40.772608-64.182272-52.032512l0 22.114304C506.062848 275.775488 513.353728 293.987328 512.326656 319.15008zM693.914624 553.85088l-81.401856 0c4.159488-43.373568 31.3088-79.34976 81.401856-107.968512l0-27.317248c-52.196352 20.8128-87.663616 47.68256-106.448896 80.651264-20.886528-33.821696-55.842816-60.69248-104.882176-80.651264l0 26.015744c49.03936 30.34624 75.65312 66.768896 79.835136 109.268992l-75.139072 0 0 27.318272 76.706816 0 0 67.643392-67.313664 0 0 27.317248 25.046016 0c-5.231616 9.53344-9.391104 22.114304-12.522496 37.72416l43.83232 0c3.131392-16.484352 7.82848-29.065216 14.088192-37.72416l40.701952 0c6.26176 11.259904 10.4192 23.414784 12.522496 36.422656l45.398016 0c-2.10432-11.281408-6.260736-23.414784-12.52352-36.422656l29.743104 0 0-27.317248-72.008704 0 0-67.643392 82.966528 0L693.916672 553.85088zM628.166656 338.6624l-68.878336 0 0-15.609856c0-2.601984 0-5.651456 0-9.106432l68.878336 0L628.166656 338.6624zM576.50688 209.881088l39.138304 0 0-55.934976-39.138304 0 0 55.934976ZM559.28832 382.891008l68.878336 0 0-23.414784-68.878336 0 0 23.414784Z"  horiz-adv-x="1024" />

    
    <glyph glyph-name="daichulidingdan" unicode="&#58940;" d="M597.704704 191.895552c11.419648 23.99232 26.978304 45.630464 45.7472 64.004096L123.435008 255.899648l0 64.004096 675.484672 0c0.475136 0.003072 0.9472 0.018432 1.42336 0.018432s0.948224-0.01536 1.42336-0.018432l34.855936 0 0-2.9184c20.92544-3.402752 40.876032-9.698304 59.43296-18.466816L896.055296 831.6928 64.004096 831.6928l0-831.808512 533.44256 0c-13.723648 29.03552-21.410816 61.483008-21.410816 95.729664 0 10.96192 0.801792 21.736448 2.321408 32.277504L123.435008 127.891456l0 64.004096L597.704704 191.895552zM480.03072 703.927296l356.591616 0 0-64.004096L480.03072 639.9232 480.03072 703.927296zM123.435008 575.920128l713.187328 0 0-64.004096L123.435008 511.916032 123.435008 575.920128zM123.435008 447.911936l713.187328 0 0-64.004096L123.435008 383.90784 123.435008 447.911936zM800.93184 255.91808c-88.532992 0-160.304128-71.771136-160.304128-160.304128s71.771136-160.304128 160.304128-160.304128 160.304128 71.771136 160.304128 160.304128S889.464832 255.91808 800.93184 255.91808zM839.816192 45.140992l-45.256704-45.256704-0.001024 0-90.515456 90.515456 45.257728 45.256704 45.256704-45.256704 90.51648 90.51648 45.257728-45.257728L839.816192 45.140992z"  horiz-adv-x="1024" />

    
    <glyph glyph-name="zhekou" unicode="&#58908;" d="M613.25312 373.049344c18.154496 18.17088 27.271168 37.188608 14.050304 50.414592-12.394496 12.414976-32.208896 3.572736-50.368512-14.598144-18.982912-18.4576-25.86624-38.596608-13.743104-50.721792C575.0272 346.307584 592.896 352.622592 613.25312 373.049344zM960.912384 325.376C942.558208 343.79776 465.794048 821.398528 465.794048 821.398528l-206.633984-6.043648-64.741376-64.851968c19.004416-22.700032 36.873216-45.633536 50.545664-66.11456 11.5456 6.134784 24.660992 9.63584 38.621184 9.63584 45.627392 0 82.627584-37.062656 82.627584-82.787328 0-45.687808-37.000192-82.73408-82.627584-82.73408-45.591552 0-82.610176 37.046272-82.610176 82.73408 0 9.997312 1.855488 19.506176 5.097472 28.3648C185.7536 654.867456 162.60608 675.294208 140.288 696.261632l-50.112512-50.197504L90.175488 432.7424l493.96736-494.794752c0 0 14.73536-20.3008 35.017728 0 20.246528 20.299776 341.751808 342.355968 341.751808 342.355968S979.303424 306.970624 960.912384 325.376zM545.035264 439.181312c31.898624 31.993856 75.6736 36.6848 106.47552 5.791744 30.55104-30.604288 25.325568-70.5536-5.224448-101.175296-37.434368-37.459968-80.879616-33.616896-106.784768-7.703552C512.284672 363.37664 511.18592 405.275648 545.035264 439.181312zM389.849088 459.552768l27.777024 27.84256 72.107008-72.213504-27.79648-27.805696L389.849088 459.552768zM700.763136 140.384256c-37.144576-37.20704-80.628736-33.345536-106.462208-7.43424-26.984448 27.01312-28.0832 68.912128 5.475328 102.528 31.93856 31.976448 75.675648 36.667392 106.225664 6.080512C736.534528 210.936832 731.312128 170.986496 700.763136 140.384256zM489.444352 236.868608l-22.571008 22.60992 287.568896 81.84832 22.262784-22.322176L489.444352 236.868608zM631.988224 205.453312c-18.988032-18.479104-25.885696-38.597632-14.053376-50.453504 11.836416-11.87328 29.7216-5.522432 49.808384 14.616576 18.176 18.188288 27.252736 37.20704 14.319616 50.162688C669.686784 232.157184 649.856 223.351808 631.988224 205.453312zM255.340544 626.752512c0.576512 0 1.585152 0.054272 1.999872 0.470016 11.691008 11.728896-60.614656 107.58144-158.104576 209.784832-2.701312 0.504832-8.267776 1.425408-14.590976 1.425408-8.267776 0-19.382272-1.568768-25.325568-9.075712C54.29248 822.986752 53.248 812.863488 56.20224 799.22176 118.816768 731.987968 227.221504 626.752512 255.340544 626.752512z"  horiz-adv-x="1024" />

    
    <glyph glyph-name="nocollection" unicode="&#58904;" d="M704.161433 30.759817c-5.714382 0-11.450254 1.36509-16.706175 4.128017l-190.976395 100.391455-190.976395-100.391455c-12.092917-6.372128-26.770814-5.298679-37.821961 2.730181-11.062404 8.035-16.598723 21.654182-14.289024 35.128055l36.467047 212.643028L135.356345 435.990095c-9.788335 9.540284-13.312749 23.812335-9.08734 36.81651 4.225409 12.999059 15.465876 22.473851 28.993528 24.443715l213.520777 31.026644 95.485639 193.471386c6.054134 12.259208 18.535923 20.018939 32.209914 20.018939 13.673991 0 26.154758-7.759731 32.209914-20.018939l95.485639-193.471386 213.520777-31.026644c13.527652-1.969864 24.768119-11.444657 28.993528-24.443715 4.225409-13.004175 0.700994-27.276227-9.08734-36.81651L703.098174 285.389098l36.467047-212.643028c2.309699-13.473873-3.22662-27.093055-14.289024-35.128055C719.02251 33.074535 711.608345 30.759817 704.161433 30.759817zM496.478863 211.77245c5.742012 0 11.483001-1.376347 16.712315-4.128017l143.273998-75.31636-27.358216 159.53139c-2.001671 11.650341 1.861472 23.537066 10.328663 31.787984l115.914758 112.985284L595.158375 459.904761c-11.698927 1.699712-21.811664 9.049097-27.046095 19.646456l-71.63444 145.145751-71.63444-145.145751c-5.234431-10.597359-15.347167-17.946744-27.046095-19.646456l-160.190983-23.273053 115.914758-112.985284c8.466168-8.250918 12.330334-20.137643 10.328663-31.787984l-27.358216-159.53139 143.273998 75.31636C484.995863 210.396103 490.736851 211.77245 496.478863 211.77245z"  horiz-adv-x="1024" />

    
    <glyph glyph-name="tezan" unicode="&#58905;" d="M880.09984 526.93504c-35.55968 9.33376-119.17952 9.22368-241.472 12.44544 5.77792 26.69696 7.11296 50.75584 7.11296 93.48352 0 102.0672-74.3424 191.968-140.14336 191.968-46.4512 0-84.76032-37.97632-85.34528-84.67712-0.63872-57.28384-18.33472-156.24064-113.79072-206.41408-7.00032-3.69408-27.03104-13.55648-29.94688-14.86336l1.49888-1.27744c-14.94656 12.8896-35.6416 22.752-56.89472 22.752l-85.34272 0c-47.06176 0-85.344-38.28224-85.344-85.34272l0-455.16416c0-47.06048 38.28224-85.34272 85.344-85.34272l85.34272 0c33.86496 0 62.17216 20.44544 75.8976 49.11488 0.3328-0.11008 0.94464-0.27776 1.33248-0.3328 1.88928-0.50048 4.08448-1.05728 6.80704-1.77792 0.50048-0.11264 0.77824-0.17024 1.3056-0.33536 16.3904-4.05504 47.9232-11.61216 115.3472-27.11296 14.47424-3.28064 90.8032-19.55712 169.92384-19.55712l155.52 0c47.392 0 81.56288 18.22208 101.89952 54.83776 0.27776 0.55552 6.83264 13.3376 12.16768 30.6176 4 12.99712 5.50272 31.38944 0.66688 50.05952 30.55744 21.00224 40.39296 52.7296 46.78528 73.38496 10.72256 33.89312 7.49952 59.33696 0.05504 77.56288 17.16736 16.22528 31.83488 40.94976 38.00192 78.67776 3.83232 23.392-0.27776 47.4496-11.05536 67.49312 16.11264 18.08768 23.44448 40.8384 24.27776 61.89568l0.33536 5.9456c0.22272 3.7504 0.3904 6.05568 0.3904 14.25024C960.77696 465.17632 935.8848 510.98752 880.09984 526.93504zM249.56672-0.15488c0-15.7248-12.7232-28.448-28.448-28.448l-85.34272 0c-15.7248 0-28.448 12.72192-28.448 28.448L107.328 455.00928c0 15.72352 12.7232 28.448 28.448 28.448l85.34272 0c15.72352 0 28.448-12.7232 28.448-28.448L249.56672-0.15488zM903.21536 411.33696c-0.55808-14.05696-6.4448-41.66912-56.22784-41.66912-42.6752 0-56.89984 0-56.89984 0-7.88736 0-14.22208-6.36288-14.22208-14.22464s6.33472-14.22464 14.22208-14.22464c0 0 12.448 0 55.11808 0 42.6752 0 48.28544-35.4048 45.50784-52.46208-3.49952-21.22496-13.44768-61.34272-61.50528-61.34272-48.00768 0-67.56736 0-67.56736 0-7.88736 0-14.22208-6.33472-14.22208-14.22208 0-7.83744 6.33472-14.22464 14.22208-14.22464 0 0 33.78304 0 56.00768 0 48.00768 0 43.78496-36.6144 36.89472-58.45248-9.05728-28.7104-14.61504-55.32544-75.12192-55.32544-20.44544 0-46.39232 0-46.39232 0-7.88992 0-14.22208-6.33472-14.22208-14.22464 0-7.83232 6.33216-14.22208 14.22208-14.22208 0 0 19.7248 0 44.6144 0 31.11552 0 32.56064-29.44768 29.3376-40.00512-3.55712-11.55712-7.77728-20.11264-7.94496-20.50304-8.61056-15.50208-22.4448-24.83456-51.7824-24.83456l-155.52 0c-78.11968 0-155.61728 17.72288-157.61536 18.16704-118.18112 27.22688-124.4032 29.3376-131.82208 31.44704 0 0-24.06016 4.0576-24.06016 25.05984l-0.22144 392.90624c0 13.33504 8.50304 25.39136 22.5856 29.64224 1.74976 0.69504 4.13952 1.41696 5.8624 2.13888 129.95968 53.81248 169.52064 171.8272 170.68928 268.72704 0.1664 13.6128 10.66752 28.448 28.44672 28.448 30.0736 0 83.24864-60.36864 83.24864-135.072 0-67.45216-2.72256-79.12064-26.33728-149.40672 284.48 0 282.47808-4.0832 307.59296-10.66752 31.11552-8.8896 33.78304-34.67136 33.78304-43.56224C903.88224 419.47776 903.60192 420.89344 903.21536 411.33696zM178.44608 85.18784c-23.55712 0-42.67008-19.11296-42.67008-42.67264 0-23.55712 19.11296-42.67008 42.67008-42.67008 23.56096 0 42.67264 19.11296 42.67264 42.67008C221.11872 66.07488 202.00576 85.18784 178.44608 85.18784zM178.44608 28.29312c-7.8336 0-14.22208 6.38976-14.22208 14.22208 0 7.83488 6.38976 14.22464 14.22208 14.22464 7.83616 0 14.22464-6.38976 14.22464-14.22464C192.67072 34.68288 186.28224 28.29312 178.44608 28.29312z"  horiz-adv-x="1024" />

    
    <glyph glyph-name="pingjiayiban" unicode="&#58946;" d="M512.000512 764.7794c209.966475 0 380.795002-170.821527 380.795002-380.7794 0-209.957873-170.828526-380.7794-380.795002-380.7794-209.967499 0-380.795002 170.82255-380.795002 380.7794C131.20551 593.957873 302.033013 764.7794 512.000512 764.7794M512.000512 835.212542c-249.208806 0-451.23103-202.013947-451.23103-451.212542 0-249.198595 202.022224-451.213565 451.23103-451.213565 249.208806 0 451.23103 202.013947 451.23103 451.213565C963.231542 633.198595 761.209318 835.212542 512.000512 835.212542L512.000512 835.212542zM512.000512 192.853565c-95.336135 0-183.27858 30.81482-255.193346 82.538855C313.245838 195.124282 406.415545 142.539646 512.000512 142.539646s198.754673 52.584636 255.193346 132.852774C695.279091 223.668385 607.33767 192.853565 512.000512 192.853565zM441.564483 454.433142c0-38.896892-31.572336-70.433142-70.436028-70.433142s-70.436028 31.53625-70.436028 70.433142 31.572336 70.433142 70.436028 70.433142S441.564483 493.330034 441.564483 454.433142zM723.30962 454.433142c0-38.896892-31.57336-70.433142-70.437052-70.433142-38.863692 0-70.435005 31.53625-70.435005 70.433142s31.572336 70.433142 70.435005 70.433142C691.73626 524.866285 723.30962 493.330034 723.30962 454.433142z"  horiz-adv-x="1024" />

    
    <glyph glyph-name="pingjiabumanyi" unicode="&#58947;" d="M512.000512 764.7794c209.958896 0 380.7794-170.821527 380.7794-380.7794 0-209.958896-170.821527-380.7794-380.7794-380.7794-209.957873 0-380.7794 170.821527-380.7794 380.7794C131.221112 593.957873 302.041616 764.7794 512.000512 764.7794M512.000512 835.212542c-249.198595 0-451.212542-202.013947-451.212542-451.212542 0-249.198595 202.013947-451.213565 451.212542-451.213565 249.198595 0 451.213565 202.013947 451.213565 451.213565C963.213054 633.198595 761.199107 835.212542 512.000512 835.212542L512.000512 835.212542zM860.589768 407.695678c0.756223-26.619264-13.481036-55.370075-44.846394-55.370075-31.295773 0-52.274574 22.320355-52.274574 57.536414 0 67.819618-2.750647 84.189448-2.750647 84.189448S858.905406 465.954547 860.589768 407.695678zM198.627315 372.478596c-0.757247-26.619264 13.481036-55.369052 44.846394-55.369052 31.295773 0 52.274574 22.319331 52.274574 57.536414 0 67.819618 2.750647 84.189448 2.750647 84.189448S200.3127 430.737464 198.627315 372.478596zM758.517021 524.866285c0-22.010293-66.789149 0-105.650225 0s-70.433142-24.761963-70.433142 0 31.572066 70.433142 70.433142 70.433142S758.517021 546.876578 758.517021 524.866285zM265.484002 524.866285c0-22.010293 66.788126 0 105.650225 0s70.433142-24.761963 70.433142 0-31.571043 70.433142-70.433142 70.433142S265.484002 546.876578 265.484002 524.866285zM303.65844 173.628712c0 97.705276 70.123081 207.207226 208.342072 207.207226s208.343095-109.50195 208.343095-207.207226c0 0-67.028603 35.078936-208.343095 35.078936C370.686019 208.707648 303.65844 173.628712 303.65844 173.628712z"  horiz-adv-x="1024" />

    
    <glyph glyph-name="pingjiamanyi" unicode="&#58948;" d="M511.999488 764.7794c209.959919 0 380.780423-170.786735 380.780423-380.7794 0-209.924103-170.820504-380.7794-380.780423-380.7794-209.957873 0-380.778376 170.855296-380.778376 380.7794C131.221112 593.992665 302.041616 764.7794 511.999488 764.7794M511.999488 835.212542c-249.197572 0-451.212542-202.013947-451.212542-451.212542s202.013947-451.212542 451.212542-451.212542c249.199619 0 451.214589 202.013947 451.214589 451.212542S761.199107 835.212542 511.999488 835.212542L511.999488 835.212542zM758.517021 454.433142c0-22.010293-66.789149 0-105.650225 0s-70.432119-24.761963-70.432119 0 31.571043 70.433142 70.432119 70.433142S758.517021 476.443435 758.517021 454.433142zM265.484002 454.433142c0-22.010293 66.788126 0 105.650225 0s70.433142-24.761963 70.433142 0-31.571043 70.433142-70.433142 70.433142S265.484002 476.443435 265.484002 454.433142zM752.945119 313.566858c0-113.628944-81.092923-240.945631-240.945631-240.945631-159.849638 0-240.944608 127.316687-240.944608 240.945631 0 0 77.517491-40.787962 240.944608-40.787962C675.427628 272.778896 752.945119 313.566858 752.945119 313.566858z"  horiz-adv-x="1024" />

    
    <glyph glyph-name="gerenziliao" unicode="&#58941;" d="M423.565922 285.069482c0 0-29.708487-24.051723-39.304035-24.051723S345.041656 285.069482 345.041656 285.069482s-34.69482-5.321548-46.762583-13.366724c-12.025861-8.003274-17.34741-50.575661-17.34741-50.575661l207.079466 0c0 0-3.519764 41.105819-17.682625 50.575661C458.260741 279.747934 423.565922 285.069482 423.565922 285.069482zM512.020951 623.9306m-22.375644 0a0.534 0.534 0 1 0 44.751289 0 0.534 0.534 0 1 0-44.751289 0ZM385.058024 296.885834c27.026762 0 56.148621 28.786644 56.148621 64.319502 0 35.490957-29.121859 64.2776-56.148621 64.2776-27.026762 0-56.148621-28.786644-56.148621-64.2776C328.909403 325.672477 358.031263 296.885834 385.058024 296.885834zM534.354694 264.747033l206.073819 0 0-39.220231-206.073819 0 0 39.220231ZM764.019314 843.748261 259.980686 843.748261c-112.841967 0-204.313937-91.47197-204.313937-204.313937l0-510.826745c0-112.841967 91.47197-204.313937 204.313937-204.313937l504.038628 0c112.841967 0 204.313937 91.47197 204.313937 204.313937L968.333251 639.434324C968.333251 752.276291 876.861282 843.748261 764.019314 843.748261zM355.475243 555.462804c0 12.361077 10.014567 22.375644 22.375644 22.375644l67.085032 0c0 0 0.251412 29.917997 0.251412 66.288894 0 37.753662 29.079957 69.305835 66.83362 69.305835 37.71176 0 67.839267-33.186349 67.839267-69.515345 0-39.136427-0.754235-66.079385-0.754235-66.079385l67.126933 0c12.319175 0 22.333743-10.014567 22.333743-22.375644s0-43.326622 0-43.326622L355.475243 512.136181C355.475243 512.094279 355.475243 543.101727 355.475243 555.462804zM825.070464 183.205827c0-24.722154-20.029135-44.709387-44.709387-44.709387L243.638923 138.49644c-24.722154 0-44.709387 20.029135-44.709387 44.709387L198.929536 510.711515c0 24.680252 20.029135 44.709387 44.709387 44.709387l79.823226-1.382765 0-78.649971 377.536623 0-0.460922 81.457402 79.781324-1.382765c24.722154 0 44.709387-20.029135 44.709387-44.709387L825.028562 183.205827zM534.354694 423.010721l206.073819 0 0-29.582781-206.073819 0 0 29.582781ZM534.354694 351.777396l206.073819 0 0-36.789917-206.073819 0 0 36.789917Z"  horiz-adv-x="1024" />

    
    <glyph glyph-name="dingdanchenggong" unicode="&#58906;" d="M514.655 845.266c-248.116 0-449.259-201.142-449.259-449.254 0-248.102 201.143-449.273 449.259-449.273 248.11 0 449.253 201.172 449.253 449.273C963.907 644.124 762.765 845.266 514.655 845.266zM407.132 401.297l65.148-119.156c0 0 105.868 242.156 272.809 322.875-4.069-57.656-20.36-107.625 8.146-169.125-73.295-15.375-223.951-188.344-272.809-272.906-69.218 80.719-150.657 142.219-207.66 161.438L407.132 401.297z"  horiz-adv-x="1024" />

    
    <glyph glyph-name="queren01" unicode="&#58933;" d="M512 767.999744c-212.068953 0-383.999744-171.915441-383.999744-383.999744S299.931047 0.000256 512 0.000256c212.071 0 383.999744 171.915441 383.999744 383.999744S724.071 767.999744 512 767.999744zM512 30.719908c-194.804754 0-353.280092 158.488641-353.280092 353.280092 0 194.789405 158.475338 353.280092 353.280092 353.280092 194.805778 0 353.280092-158.490687 353.280092-353.280092C865.280092 189.209572 706.805778 30.719908 512 30.719908zM704.089923 521.100518 457.505875 281.985582l-86.384439 86.36909c-9.001001 9.001001-23.581068 9.001001-32.580023 0-9.001001-8.998955-9.001001-23.579021 0-32.580023l102.418624-102.418624c4.500501-4.500501 10.395768-6.750751 16.291035-6.750751 5.77554 0 11.564383 2.159176 16.034185 6.495948L736.160339 488.009865c9.135054 8.863878 9.360182 23.443945 0.509606 32.580023C727.775368 529.740292 713.210651 529.949047 704.089923 521.100518z"  horiz-adv-x="1024" />

    
    <glyph glyph-name="mima" unicode="&#58968;" d="M804 480v128c0 159.072-128.928 288-288 288s-288-128.928-288-288v-128c-53.024 0-96-42.976-96-96v-224c0-159.072 128.928-288 288-288h192c159.072 0 288 128.928 288 288v224c0 53.056-43.008 96-96 96zM292 608c0 123.712 100.288 224 224 224s224-100.288 224-224v-128h-64v127.936c0 88.384-71.616 160-160 160s-160-71.616-160-160v-127.936h-64v128zM644 608v-128h-256v128c0 70.688 57.312 128 128 128s128-57.312 128-128zM836 288v-128c0-123.488-100.512-224-224-224h-192c-123.488 0-224 100.512-224 224v224c0 17.664 14.336 32 32 32 21.344 0 42.656 0 64 0h448c21.312 0 42.625 0 64 0 17.632 0 32-14.336 32-32v-96zM516 288c35.328 0 64-28.64 64-64 0-19.488-10.496-56.576-21.312-85.824-8.736-23.616-17.664-42.113-42.688-42.113-23.008 0-33.952 18.688-42.656 42.432-10.688 29.184-21.344 66.048-21.344 85.504 0 35.36 28.672 64 64 64z"  horiz-adv-x="1024" />

    
    <glyph glyph-name="qian" unicode="&#58943;" d="M675.627173 379.795235c22.86987 0 41.423435 18.555611 41.423435 41.424458 0 22.870894-18.554588 41.424458-41.423435 41.424458l-54.413284 0 65.467037 136.886647c8.463766 15.468296-0.663102 37.772278-20.315698 49.78794-19.715017 12.015661-42.485627 9.228175-50.982138-6.272867l-85.005023-177.780009c-0.465604-0.852414-0.86981-1.730411-1.230014-2.62171l-21.080108 0c-0.497327 1.591241-1.153266 3.13541-1.987261 4.613064l-84.013439 169.44825c-8.398274 14.83794-31.001061 17.525142-50.519604 6.007831-19.48375-11.55108-28.511357-32.926924-20.146852-47.796586l65.605184-132.273583-66.401316 0c-22.870894 0-41.424458-18.553565-41.424458-41.424458 0-22.868847 18.553565-41.424458 41.424458-41.424458l121.087822 0 0-56.293097-121.087822 0c-22.870894 0-41.424458-18.555611-41.424458-41.425482 0-22.868847 18.553565-41.423435 41.424458-41.423435l121.087822 0 0-120.256898c0-22.73684 18.422581-41.192168 41.191144-41.192168l0.465604 0c22.77061 0 41.192168 18.455327 41.192168 41.192168L554.541397 240.652198l121.085776 0c22.86987 0 41.423435 18.555611 41.423435 41.423435 0 22.870894-18.554588 41.425482-41.423435 41.425482L554.541397 323.501114l0 56.293097L675.627173 379.794212zM513.117962 894.976694c-281.577027 0-509.839801-228.263797-509.839801-509.836731 0-281.573957 228.262774-509.8705 509.839801-509.8705 281.570887 0 509.837754 228.297566 509.837754 509.8705C1022.954693 666.712897 794.688849 894.976694 513.117962 894.976694zM513.117962-54.5962c-242.87354 0-439.736163 196.866716-439.736163 439.736163 0 242.835677 196.8616 439.734116 439.736163 439.734116 242.869447 0 439.734116-196.898439 439.734116-439.734116C952.851055 142.270517 755.987409-54.5962 513.117962-54.5962z"  horiz-adv-x="1024" />

    
    <glyph glyph-name="shoucang" unicode="&#58949;" d="M591.402618 467.171685l-78.654176 160.528639-79.531056-160.069765-176.964014-25.218189 127.620525-125.126495L353.184255 141.217423l158.436269 82.758349 157.99958-83.665587-29.712347 176.252935 128.346782 124.401405L591.402618 467.171685zM512 896C229.218372 896 0 666.781628 0 384S229.218372-128 512-128 1024 101.217204 1024 384 794.782796 896 512 896zM512-47.999562c-238.597838 0-431.999562 193.402892-431.999562 431.999562S273.402162 815.999562 512 815.999562 943.999562 622.597838 943.999562 384 750.597838-47.999562 512-47.999562z"  horiz-adv-x="1024" />

    
    <glyph glyph-name="paixu" unicode="&#58992;" d="M654.87964 431.154086 767.143493 431.154086 511.999488 686.980635 255.490394 431.154086 368.353904 431.154086 511.999488 574.416953ZM654.87964 172.257617 767.143493 172.257617 511.999488-83.568932 255.490394 172.257617 368.353904 172.257617 511.999488 28.99475Z"  horiz-adv-x="1024" />

    
    <glyph glyph-name="erweima" unicode="&#58924;" d="M354.461538 896 0 896l0-354.461538 354.461538 0L354.461538 896zM275.692308 620.307692 78.769231 620.307692 78.769231 817.230769l196.923077 0L275.692308 620.307692zM236.307692 659.692308 118.153846 659.692308 118.153846 777.846154l118.153846 0L236.307692 659.692308zM512 896l0-78.769231-78.769231 0L433.230769 896 512 896zM512 659.692308l0-78.769231-78.769231 0L433.230769 738.461538l78.769231 0L512 817.230769l78.769231 0 0-157.538462L512 659.692308zM78.769231 462.769231l0-78.769231L0 384l0 78.769231L78.769231 462.769231zM512-128l0 78.769231 78.769231 0 0-78.769231L512-128zM945.230769 384l78.769231 0 0-78.769231-236.307692 0 0 78.769231 78.769231 0 0 78.769231 78.769231 0L945.230769 384zM512 265.846154l0-78.769231-78.769231 0 0 78.769231L512 265.846154zM945.230769-128l0 78.769231 78.769231 0 0-78.769231L945.230769-128zM945.230769 187.076923l78.769231 0 0-78.769231 0-78.769231-78.769231 0 0-78.769231-39.384615 0 0-78.769231-78.769231 0 0 78.769231 39.384615 0 0 78.769231-39.384615 0 0-78.769231-78.769231 0 0-78.769231-78.769231 0 0 157.538462 78.769231 0 0 78.769231 78.769231 0 0 78.769231-78.769231 0 0-78.769231-78.769231 0 0-78.769231-157.538462 0 0-78.769231-78.769231 0 0 157.538462 78.769231 0 0 78.769231 157.538462 0 0 78.769231 275.692308 0L945.230769 187.076923zM787.692308 462.769231l0-78.769231-78.769231 0 0-78.769231-118.153846 0 0 78.769231-78.769231 0 0-78.769231L315.076923 305.230769l0 78.769231L236.307692 384l0-78.769231L78.769231 305.230769l0 78.769231 78.769231 0 0 78.769231 354.461538 0L512 580.923077l78.769231 0 0-118.153846L787.692308 462.769231zM0-128l354.461538 0 0 354.461538L0 226.461538 0-128zM78.769231 147.692308l196.923077 0 0-196.923077L78.769231-49.230769 78.769231 147.692308zM118.153846 108.307692l118.153846 0 0-118.153846L118.153846-9.846154 118.153846 108.307692zM669.538462 896l0-354.461538 354.461538 0L1024 896 669.538462 896zM945.230769 620.307692l-196.923077 0L748.307692 817.230769l196.923077 0L945.230769 620.307692zM905.846154 659.692308l-118.153846 0L787.692308 777.846154l118.153846 0L905.846154 659.692308z"  horiz-adv-x="1024" />

    
    <glyph glyph-name="loading" unicode="&#58950;" d="M960 383.953c-1.112 58.228-13.745 116.274-37.078 169.35-23.255 53.123-57.008 101.246-98.443 141.011-41.412 39.795-90.522 71.254-143.679 92.008-53.127 20.835-110.25 30.787-166.683 29.581-56.441-1.117-112.631-13.389-164.014-36.015-51.423-22.552-98.009-55.275-136.495-95.426-38.513-40.131-68.937-87.703-88.99-139.164-20.129-51.435-29.721-106.698-28.518-161.345 1.12-54.656 13.032-108.988 34.952-158.679 21.848-49.724 53.538-94.774 92.408-131.977 38.849-37.232 84.885-66.625 134.648-85.973 49.742-19.423 103.149-28.651 156.009-27.455 52.867 1.124 105.34 12.677 153.339 33.89 48.028 21.146 91.541 51.8 127.465 89.39 35.951 37.569 64.308 82.066 82.953 130.134 11.352 29.137 19.055 59.565 23.115 90.394 1.085-0.061 2.176-0.104 3.276-0.104 30.78 0 55.734 24.951 55.734 55.734 0 1.564-0.081 3.111-0.207 4.644L960 383.951 960 383.953zM871.439 235.949c-20.441-46.331-50.062-88.305-86.371-122.949-36.29-34.668-79.249-61.992-125.617-79.936-46.354-18.008-96.049-26.519-145.334-25.326-49.295 1.131-98.056 11.962-142.666 31.764-44.632 19.739-85.069 48.325-118.433 83.353-33.387 35.006-59.679 76.43-76.916 121.101-17.304 44.661-25.454 92.498-24.266 139.998 1.134 47.507 11.607 94.412 30.702 137.326 19.036 42.935 46.589 81.836 80.333 113.918 33.729 32.107 73.615 57.364 116.586 73.898 42.967 16.599 88.946 24.39 134.659 23.204 45.721-1.138 90.769-11.25 131.99-29.64 41.237-18.332 78.602-44.852 109.401-77.318 30.825-32.446 55.048-70.796 70.88-112.069 15.892-41.273 23.323-85.396 22.142-129.32l0.207 0c-0.126-1.533-0.207-3.08-0.207-4.644 0-28.748 21.764-52.402 49.713-55.408C892.823 293.576 883.849 263.97 871.439 235.949z"  horiz-adv-x="1024" />

    
    <glyph glyph-name="tingzhi" unicode="&#58958;" d="M511.999 864.001c-265.088 0-480-214.848-480-480s214.912-480 480-480c265.152 0 480 214.848 480 480 0 265.152-214.848 480-480 480zM511.999-31.999c-229.376 0-416 186.624-416 416s186.624 416 416 416 416-186.624 416-416c0-229.376-186.624-416-416-416zM639.999 544.001l-256 0c-17.664 0-32-14.336-32-32l0-256c0-17.664 14.336-32 32-32l256 0c17.664 0 32 14.336 32 32l0 256c0 17.664-14.336 32-32 32z"  horiz-adv-x="1024" />

    
    <glyph glyph-name="fubushi" unicode="&#58942;" d="M498.231415 682.716382l27.030633 0L525.262048 816.730609l-21.474081 0c-0.759293-5.050016-2.399653-9.345856-4.798283-12.883425-2.402723-3.409656-5.307889-6.187933-8.844435-8.333806-3.53757-2.149966-7.449669-3.536546-11.745509-4.421706-4.421706-0.886183-8.844435-1.137916-13.514805-1.01205l0-20.462031 33.345456 0L498.230392 682.716382 498.231415 682.716382zM222.121913 564.49484c-2.777253-2.52552-5.682419-4.928243-8.965186-6.947226-3.288906-2.14485-6.446829-4.168949-9.350972-6.187933-5.682419-3.916193-11.113105-7.833409-16.167215-11.622712-5.175883-3.786233-9.598612-8.081049-13.388938-12.503778-3.789303-4.54348-6.820336-9.725502-8.966209-15.407921-2.272763-5.687536-3.28379-12.507872-3.28379-20.336164l97.510848 0L259.510452 514.856303l-62.773695 0c3.28379 4.544503 7.070023 8.587586 11.364839 11.997242 4.295839 3.41068 8.717546 6.694469 13.263072 9.725502 4.549619 3.035126 9.093099 6.066159 13.515828 9.098215 4.547573 3.031033 8.464789 6.440689 11.997242 10.225899 3.536546 3.790326 6.445806 8.085142 8.590656 12.887518 2.145873 4.796236 3.28379 10.606569 3.28379 17.426905 0 6.440689-1.264806 12.380982-3.663436 17.558911-2.524496 5.180999-5.808286 9.599635-9.978259 13.261025-4.168949 3.53757-8.966209 6.314823-14.521738 8.212032-5.560646 1.893116-11.243065 2.905166-17.305131 2.905166-7.959276 0-15.033391-1.390673-21.222347-4.169973-6.187933-2.777253-11.237949-6.567579-15.281031-11.495822-4.043083-4.924149-7.073092-10.610662-9.097192-17.179264-2.018983-6.567579-2.904143-13.640672-2.651386-21.343097l25.76992 0c0 3.53757 0.375553 7.201006 1.007957 10.864442 0.75827 3.659343 1.896186 6.943133 3.536546 9.978259 1.644453 3.031033 3.789303 5.429663 6.568602 7.321756 2.777253 1.896186 6.062066 2.78237 9.978259 2.78237 5.813403 0 10.610662-1.77032 14.274098-5.433756 3.789303-3.663436 5.555529-8.713452 5.555529-15.155165 0-4.043083-0.884137-7.706519-2.777253-10.863419C227.046063 569.924503 224.7733 567.02036 222.121913 564.49484L222.121913 564.49484zM814.252929 385.898233c-3.916193 0-7.326872 0.62831-10.104125 2.14485-2.778276 1.390673-5.182023 3.28379-7.073092 5.682419-1.89721 2.39863-3.411703 5.182023-4.423753 8.465812-1.01205 3.282766-1.639337 6.694469-1.639337 10.229992l-25.76992 0c-0.125867-7.832386 1.01205-14.653745 3.28379-20.715811 2.402723-5.935176 5.686513-11.116175 9.978259-15.159258 4.295839-4.164856 9.471722-7.321756 15.665795-9.472745 6.187933-2.14485 12.883425-3.28379 20.331048-3.28379 6.440689 0 12.634762 1.01205 18.569938 2.905166 5.934153 1.89721 11.237949 4.675486 15.786545 8.465812 4.547573 3.662413 8.212032 8.333806 10.863419 13.767562 2.7793 5.429663 4.043083 11.744485 4.043083 18.691711 0 7.706519-2.149966 14.274098-6.317892 19.703761-4.164856 5.433756-9.974166 9.092076-17.301038 10.736529l0 0.379647c6.187933 1.76725 10.858302 5.176906 13.893428 10.104125 3.157923 4.924149 4.670369 10.738575 4.670369 17.179264 0 6.062066-1.38658 11.238972-4.043083 15.914458-2.651386 4.547573-6.062066 8.459672-10.352789 11.618619-4.295839 3.1569-8.971325 5.559623-14.274098 7.199982-5.302773 1.644453-10.609639 2.39863-15.912411 2.39863-6.821359 0-13.009292-1.1328-18.569938-3.405563-5.556553-2.276856-10.357905-5.433756-14.270005-9.476839-4.043083-4.03899-7.074116-8.966209-9.345856-14.648628-2.149966-5.687536-3.41068-12.002358-3.663436-18.818601l25.638937 0c-0.125867 6.821359 1.518586 12.629645 5.050016 17.174148 3.53757 4.547573 8.591679 6.820336 15.412015 6.820336 4.924149 0 9.346879-1.512447 13.136182-4.54348 3.789303-3.032056 5.682419-7.453762 5.682419-13.262048 0-3.790326-0.886183-6.821359-2.777253-9.219989-1.89721-2.276856-4.169973-4.043083-7.075139-5.307889-2.777253-1.260713-5.934153-1.892093-9.218966-2.14485-3.28379-0.252757-6.442736-0.252757-9.345856 0l0-19.198248c3.28379 0 6.694469-0.125867 10.357905-0.251733 3.663436-0.12689 6.943133-0.886183 9.978259-2.15099 3.031033-1.260713 5.555529-3.1569 7.448646-5.808286 2.0241-2.651386 2.905166-6.568602 2.905166-11.618619 0-6.440689-2.145873-11.622712-6.314823-15.412015C825.4919 387.789303 820.313971 385.898233 814.252929 385.898233L814.252929 385.898233zM906.455887 306.951183 696.531783 306.951183c-5.808286 0-11.495822-0.881067-16.924461-2.777253l-5.051039-1.76725L674.556283 586.724121c0 28.800953-23.113417 52.16815-51.535747 52.16815L401.604704 638.892271c-28.421306 0-51.535747-23.367197-51.535747-52.16815l0-141.968385-5.050016 1.644453c-5.433756 1.893116-11.117199 2.777253-16.925485 2.777253L118.170376 449.177442c-29.049616 0-52.66957-23.61893-52.66957-52.54268l0-393.323087c0-28.66997 23.113417-52.042283 51.535747-52.042283L907.594827-48.730609c28.417213 0 51.53063 23.37129 51.53063 52.042283L959.125457 253.907083c0 29.176506-23.61586 53.049217-52.66957 53.049217L906.455887 306.951183zM350.069981-8.564817 117.031437-8.564817c-6.440689 0-11.744485 5.307889-11.744485 11.749602l1.006933 393.322064c0 6.568602 5.307889 11.871375 11.876492 11.871375l210.04997 0c6.568602 0 11.871375-5.302773 11.871375-11.871375l0-8.464789 10.104125-9.978259L350.069981-8.564817 350.069981-8.564817zM634.639155-8.564817 389.983016-8.564817 389.983016 586.724121c0 6.440689 5.302773 11.748578 11.744485 11.748578l221.293035 0c6.440689 0 11.744485-5.302773 11.744485-11.748578L634.765021-8.564817 634.639155-8.564817zM907.594827-8.564817 674.556283-8.564817 674.556283 235.211279l10.105149 10.104125 0 8.461719c0 6.571672 5.302773 11.874445 11.870352 11.874445l209.924103 0c6.568602 0 11.871375-5.302773 11.871375-11.874445l1.01205-250.465448c0-6.568602-5.302773-11.876492-11.748578-11.876492L907.594827-8.564817zM907.594827-8.564817"  horiz-adv-x="1024" />

    
    <glyph glyph-name="weixin" unicode="&#58934;" d="M498.816 550.944c26.336 0 43.936 17.632 43.936 43.904 0 26.56-17.568 43.744-43.936 43.744s-52.832-17.184-52.832-43.744C446.016 568.576 472.48 550.944 498.816 550.944zM253.088 638.592c-26.336 0-52.96-17.184-52.96-43.744 0-26.272 26.624-43.904 52.96-43.904 26.24 0 43.808 17.632 43.808 43.904C296.864 621.408 279.328 638.592 253.088 638.592zM1024 269.888c0 138.88-128.832 257.216-286.976 269.536 0.224 1.728 0.32 3.52-0.064 5.312-31.712 147.84-190.688 259.296-369.824 259.296C164.704 804.032 0 662.88 0 489.376c0-93.088 47.52-176.96 137.568-243.104l-31.392-94.368c-2.016-6.144-0.192-12.896 4.704-17.152 2.976-2.56 6.72-3.904 10.496-3.904 2.432 0 4.896 0.576 7.168 1.696L246.4 191.52l14.528-2.944c36.288-7.456 67.616-13.92 106.208-13.92 11.36 0 22.88 0.512 34.176 1.472 4.576 0.384 8.448 2.688 11.072 6.016 42.496-106.336 159.616-183.104 297.44-183.104 35.296 0 71.04 8.512 103.104 16.544l90.848-49.664c2.4-1.312 5.056-1.984 7.68-1.984 3.584 0 7.168 1.216 10.048 3.552 5.056 4.096 7.136 10.848 5.248 17.024l-23.2 77.152C981.344 123.136 1024 196.672 1024 269.888zM398.592 208.032c-10.4-0.896-20.96-1.344-31.424-1.344-35.328 0-65.216 6.112-99.776 13.248L247.296 224c-3.456 0.736-7.104 0.256-10.272-1.376l-88.288-44.192 22.944 68.928c2.24 6.752-0.224 14.112-6.016 18.176C76.96 327.36 32 402.688 32 489.376c0 155.84 150.336 282.656 335.136 282.656 163.36 0 308-99.392 337.856-231.584-171.296-2.24-309.888-122.656-309.888-270.56 0-21.504 3.264-42.336 8.768-62.432C402.208 207.872 400.448 208.192 398.592 208.032zM875.456 80.448c-5.344-4.032-7.616-10.976-5.696-17.376l15.136-50.336-62.112 33.984c-2.368 1.312-5.024 1.984-7.68 1.984-1.312 0-2.624-0.16-3.904-0.512-33.312-8.416-67.776-17.088-101.344-17.088-155.904 0-282.72 107.136-282.72 238.816 0 131.68 126.816 238.784 282.72 238.784 152.928 0 282.144-109.344 282.144-238.784C992 204.256 950.624 136.96 875.456 80.448zM612.992 384.032c-17.568 0-35.136-17.696-35.136-35.232 0-17.664 17.568-35.104 35.136-35.104 26.4 0 43.84 17.44 43.84 35.104C656.832 366.368 639.392 384.032 612.992 384.032zM806.016 384.032c-17.312 0-34.88-17.696-34.88-35.232 0-17.664 17.568-35.104 34.88-35.104 26.304 0 44.064 17.44 44.064 35.104C850.08 366.368 832.352 384.032 806.016 384.032z"  horiz-adv-x="1024" />

    
    <glyph glyph-name="pengyouquan" unicode="&#58925;" d="M398.336 568.32 58.026667 250.88c-26.965333 139.264-26.624 206.506667 20.48 317.44L398.336 568.32zM301.397333 434.176l-16.384-465.237333c-117.418667 79.530667-164.864 127.317333-209.92 238.933333L301.397333 434.176zM327.68 270.336l317.44-340.650667c-139.264-26.965333-206.506667-26.624-317.44 20.48L327.68 270.336zM461.824 173.397333l465.237333-16.384c-79.530667-117.418667-127.317333-164.864-238.933333-209.92L461.824 173.397333zM625.664 199.68l340.650667 317.44c26.965333-139.264 26.624-206.506667-20.48-317.44L625.664 199.68zM722.602667 333.824l16.384 465.237333c117.418667-79.530667 164.864-127.317333 209.92-238.933333L722.602667 333.824zM696.32 497.664 378.88 837.973333c139.264 26.965333 206.506667 26.624 317.44-20.48L696.32 497.664zM562.176 594.602667 96.938667 610.986667c79.530667 117.418667 127.317333 164.864 238.933333 209.92L562.176 594.602667z"  horiz-adv-x="1024" />

    
    <glyph glyph-name="yipingjia" unicode="&#58907;" d="M830.578 237.347c98.827 0 178.943-80.115 178.943-178.944 0-98.827-80.115-178.943-178.943-178.943-98.828 0-178.944 80.115-178.944 178.943 0.001 98.83 80.116 178.944 178.944 178.944l0 0zM919.794 75.354l0 68.533-114.881-102.436-63.553 56.865 0-68.533 63.553-56.865 114.881 102.436zM266.661 886.715c-34.411-75.387-66.703-150.879-72.74-235.61-11.79-165.537 73.206-281.904 234.281-319.68 9.691-2.266 21.157-23.363 21.329-35.83 1.617-119.147 0.871-238.321 1.091-357.484 0.029-15.45 1.685-30.887 2.589-46.332l235.524 0c-4.363 3.716-8.589 7.621-12.676 11.708-19.954 19.957-35.605 43.216-46.916 69.078-11.905 27.22-17.566 56.143-17.566 85.841 0 7.717 0.397 15.376 1.194 22.958l-35.598-36.875c-4.404-4.571-7.248-10.653-15.597-23.232-3.761 16.724-6.432 23.152-6.452 29.586-0.284 82.777 0.326 165.551-0.512 248.325-0.22 21.819 5.506 31.483 29.405 34.835 115.216 16.19 213.841 119.187 226.094 238.535 11.626 113.163-17.166 217.844-77.071 314.177l-23.321 0c-30.614-51.99-61.225-103.98-96.876-164.525-35.277 59.567-66.369 112.044-97.444 164.525l-23.326 0c-31.425-51.636-62.857-103.276-99.987-164.301-33.824 58.899-64.078 111.601-94.334 164.301l-31.088-0.001zM799.859 274.858c10.251 1.435 20.637 2.137 31.125 2.137 29.459 0 58.049-5.753 85.033-17.561 25.341-11.088 48.187-26.338 67.884-45.737 0.083 57.884 0.863 115.786-0.692 173.632-0.39 14.859-9.245 29.488-14.202 44.222-12.837-7.22-28.245-11.934-38.13-22.057-43.765-44.788-87.422-89.681-131.017-134.639l0 0zM266.661-108.226c-9.251 3.931-18.259 8.622-27.78 11.703-130.054 41.986-215.502 151.9-221.012 288.151-2.665 65.806-2.306 131.788-1.215 197.659 0.233 13.887 9.692 27.614 14.906 41.414 12.921-6.463 28.674-10.11 38.327-19.829 112.075-112.685 223.634-225.907 333.996-340.253 10.998-11.397 17.973-30.947 18.761-47.109 2.143-43.795-0.055-87.806-0.53-131.732-51.824 0-103.641 0-155.454 0z"  horiz-adv-x="1024" />

    
    <glyph glyph-name="money" unicode="&#58929;" d="M868.584653 734.136109c-197.249603 197.23154-515.901641 197.23154-713.115117 0C-41.870383 536.868442-42.82773 217.204869 154.494126 19.937202c197.195414-197.249603 517.852461-197.249603 715.102064 0C1066.863856 217.204869 1065.85232 536.868442 868.584653 734.136109L868.584653 734.136109zM698.935544 404.899065l0-99.76278-136.665796 0 0-40.082131 136.665796 0 0-98.299665-136.665796 0 0-106.446146-109.751702 0 0 106.446146-136.123902 0L316.394144 265.054154l136.123902 0 0 40.082131-136.123902 0 0 99.76278 82.819545 0-126.171106 245.929794 124.978938 0 81.121609-168.529194c10.350185-21.711907 17.593509-34.970259 21.946728-51.461916 5.202187 17.864456 12.427448 31.195061 21.982854 51.461916l82.747292 168.529194 124.924749 0-127.760663-245.929794L698.935544 404.899065 698.935544 404.899065zM698.935544 404.899065"  horiz-adv-x="1024" />

    
    <glyph glyph-name="cuxiaohuodong" unicode="&#58909;" d="M862.694709 576.039781 158.696884 576.039781c-53.025681 0-95.976912-42.951231-95.976912-95.976912l0-381.736191c0-53.027727 42.951231-95.951329 95.976912-95.951329l703.997825 0c53.030797 0 95.983051 42.922578 95.983051 95.951329L958.67776 480.062869C958.67776 533.08855 915.725506 576.039781 862.694709 576.039781zM908.170436 103.382834c0-27.92091-22.654976-50.529837-50.52472-50.529837L406.515039 52.852998l-0.051165 0L163.74997 52.852998c-27.869744 0-50.529837 22.608927-50.529837 50.529837L113.220133 475.00876c0 27.892257 22.660092 50.529837 50.529837 50.529837l693.895747 0c27.869744 0 50.52472-22.63758 50.52472-50.529837l0-284.718577L908.170436 103.382834zM261.53711 596.45167 514.000052 744.303043l245.317195-151.930271c4.212952-2.610454 8.889461-3.853771 13.506619-3.853771 8.601912 0.001023 17.009396 4.321422 21.874193 12.172227 7.473205 12.066827 3.749394 27.909653-8.318456 35.381835L527.901667 796.152944c-8.095375 5.0142-18.301831 5.140067-26.51898 0.327458L235.561505 640.806877c-12.247952-7.172353-16.362666-22.916942-9.190313-35.164894C233.546615 593.391984 249.291205 589.278293 261.53711 596.45167zM308.369741 304.184163c-6.810103 4.230348-14.262842 7.543813-22.35924 9.93835-8.100492 2.38942-15.552208 4.874007-22.35924 7.452739-6.811126 2.575662-12.517081 5.609765-17.115819 9.109472-4.602831 3.493567-6.9022 8.555863-6.9022 15.181771 0 4.417613 0.918929 8.232498 2.76088 11.456936 1.836835 3.215228 4.278443 5.840008 7.315616 7.865131 3.036149 2.025123 6.438643 3.494591 10.212596 4.417613 3.770883 0.919952 7.682983 1.379417 11.733229 1.379417 6.804986 0 13.291724-1.24127 19.460214-3.725858 6.16235-2.484587 11.085476-6.396687 14.768355-11.732206l25.396413 26.776853c-7.731078 7.176446-16.425088 12.328793-26.087145 15.458063-9.662057 3.12927-19.647479 4.695952-29.951149 4.695952-9.019421 0-17.8526-1.202385-26.500561-3.591805-8.653077-2.39249-16.334014-6.02932-23.049972-10.902304-6.719028-4.879124-12.145621-10.997472-16.286941-18.35709-4.140297-7.362688-6.210445-16.10684-6.210445-26.223245 0-11.594059 2.298346-20.841677 6.901177-27.742854 4.598738-6.901177 10.30367-12.423961 17.114796-16.563234 6.804986-4.14132 14.260795-7.411807 22.361287-9.801227 8.094352-2.391467 15.548114-4.924149 22.35924-7.589862 6.80601-2.669806 12.511965-5.934153 17.114796-9.801227 4.597715-3.862981 6.901177-9.384741 6.901177-16.562211 0-4.41659-1.014096-8.329712-3.036149-11.732206-2.02717-3.40761-4.692882-6.209422-8.005324-8.41874-3.313465-2.208295-6.996344-3.866051-11.042497-4.971222-4.050246-1.101077-8.100492-1.654686-12.146645-1.654686-7.729032 0-15.044648 1.795902-21.945825 5.384637s-12.468986 8.598842-16.699334 15.044648l-26.226315-25.396413c8.097422-9.572006 17.758456-16.382109 28.985148-20.429285 11.224646-4.044106 22.912849-6.072299 35.059494-6.072299 9.567913 0 18.676361 1.290389 27.328415 3.862981 8.648984 2.576685 16.238846 6.439666 22.773679 11.594059 6.529717 5.151323 11.731182 11.637038 15.597233 19.462261 3.864004 7.820106 5.79703 16.978696 5.79703 27.468608 0 11.594059-2.303462 20.884656-6.901177 27.881001C320.883753 294.336888 315.176774 299.946652 308.369741 304.184163zM431.760003 397.487176l-85.022419-195.442274 38.924521 0 17.666358 44.721551 84.745103 0 18.219967-44.721551 39.750329 0-84.194564 195.442274L431.760003 397.487176zM415.197792 276.577409l30.641881 79.503728 30.088272-79.503728L415.197792 276.577409zM602.629625 397.487176 567.847447 397.487176 567.847447 202.044902 685.721065 202.044902 685.721065 233.514637 602.629625 233.514637ZM745.898633 286.516782 835.613934 286.516782 835.613934 317.986517 745.898633 317.986517 745.898633 366.018463 840.581062 366.018463 840.581062 397.487176 711.116455 397.487176 711.116455 202.044902 845.553307 202.044902 845.553307 233.514637 745.898633 233.514637Z"  horiz-adv-x="1024" />

    
    <glyph glyph-name="zhangdanchaxun" unicode="&#58930;" d="M586.624 438.312 367.336 438.312c-9.84 0-17.8-9.6-17.8-21.432 0-11.768 7.968-21.304 17.8-21.304l219.288 0c9.84 0 17.816 9.536 17.816 21.304C604.44 428.72 596.456 438.312 586.624 438.312zM880.56 836.368c-0.112 0-0.16 0.064-0.272 0.064L382.8 836.432c-79.416-0.064-143.704-77.28-143.752-172.544l0-468.56c0-0.072 0.048-0.2 0.048-0.264l0-61.856L24.168 133.208c-6.416 0-12.608-3.128-17.056-8.512C2.584 119.264 0 111.904 0 104.16c0.056-95.248 64.336-172.528 143.64-172.592l497.632 0c86.944 0 122.44 51.744 143.168 116.544L784.44 284.784c0 2.112 0.424 4.28 0.52 6.456L784.96 572.792l0 0.064 0 61.992 32.552 0 83.432 0 98.912 0c6.456 0 12.496 3.008 17.016 8.576 4.64 5.432 7.128 12.664 7.128 20.528C1024 759.16 959.728 836.248 880.56 836.368zM741.624 48.112l18.144 0c-6.56 0-12.832-1.016-23.128-0.56-16.72-33.408-47.616-57.784-95.36-57.888-52.608-0.144-95.304 51.312-95.408 114.504 0 7.816-2.488 15.032-7.064 20.528-4.504 5.512-10.608 8.512-17.048 8.512L287.344 133.208l0 62.064c0 0.072 0 0.072 0 0.072l0 468.56c0.072 63.208 42.744 114.328 95.448 114.52l390.08 0c-22.528-30.52-36.232-70.568-36.232-114.52l0-616.344C738.296 47.6 739.928 48.112 741.624 48.112zM367.336 598.832l219.288 0c9.84 0 17.744 9.528 17.744 21.304 0 11.768-7.912 21.304-17.744 21.304L367.336 641.44c-9.784 0-17.8-9.536-17.8-21.304C349.536 608.36 357.56 598.832 367.336 598.832zM367.336 497.112l219.288 0c9.84 0 17.744 9.728 17.744 21.496 0 11.768-7.912 21.24-17.744 21.24L367.336 539.848c-9.84 0-17.8-9.472-17.8-21.24C349.536 506.84 357.504 497.112 367.336 497.112z"  horiz-adv-x="1032" />

    
    <glyph glyph-name="newbadge" unicode="&#58935;" d="M537.009603 633.227248l-89.615017-310.360584-4.214998-14.645558c-6.359848-20.151969-16.785292-30.225395-31.275307-30.225395-11.534707 0-19.741623 4.463662-24.62177 13.399171-4.880147 8.92937-7.985882 25.239847-9.31618 48.922223l-10.203386 187.899484-46.359864-160.789033c-18.632359-64.400752-32.794917-108.175745-42.478464-131.342374-9.68764-23.161512-22.292726-43.259246-37.81935-60.296271-22.479991-24.509207-48.28368-36.769438-77.414137-36.769438-31.054273 0-56.230676 13.710256-75.529207 41.131793-19.298532 27.421536-28.947286 63.051011-28.947286 106.880239 0 58.582233 15.228843 109.788475 45.694715 153.62282 16.265452 23.472598 36.71111 42.48051 61.33288 57.024761 24.62177 14.538111 48.688909 21.811772 72.201415 21.811772 12.421914 0 22.254863-3.583618 29.501918-10.749832 7.243985-7.167237 10.869558-16.880459 10.869558-29.135574 0-12.464893-2.883677-21.812795-8.651031-28.04473-5.767354-6.231935-15.305591-10.180873-28.614711-11.840676-29.42824-3.947915-53.163827-13.505595-71.203692-28.667923-14.938224-12.673647-26.805506-29.188786-35.601846-49.545416-8.800433-20.361747-13.19758-41.653679-13.19758-63.879889 0-23.682375 4.325515-42.324968 12.976546-55.932893 8.651031-13.603833 20.590967-20.409842 35.823903-20.409842 17.596773 0 33.085536 10.804067 46.471404 32.407084 13.381775 21.60711 27.910677 59.516512 43.586704 113.736391l87.839581 303.81654c7.836479 27.211758 19.741623 40.820708 35.712363 40.820708 18.48398 0 28.537963-15.477506 30.167067-46.429449l11.534707-207.529567 60.112076 207.529567 3.548826 12.464893c5.767354 19.524682 15.895015 29.291117 30.389124 29.291117l9.095145 0.311085 45.472658 0c20.553105 0 30.833239-9.766434 30.833239-29.291117 0-14.334473-3.625574-25.449625-10.868535-33.342386-7.248078-7.896854-17.302061-11.840676-30.167067-11.840676L537.009603 633.228271zM587.8055 373.658468c0-15.579837 8.353248-23.370267 25.065885-23.370267l65.87943 0c18.633383 0 27.949562-9.245572 27.949562-27.732621 0-12.674671-3.292999-22.543436-9.870812-29.603225-6.582929-7.064906-15.787568-10.595312-27.615964-10.595312l-62.774719 0c-23.367197 0-41.147142 8.101515-53.348022 24.305569-12.199856 16.20303-18.299785 39.886429-18.299785 71.046103 0 40.090067 9.649777 74.67884 28.947286 103.765295 19.297508 29.081339 42.256406 43.624567 68.874647 43.624567 19.371186 0 34.936697-7.119141 46.692439-21.345144 11.756765-14.232143 17.634636-32.981159 17.634636-56.245002 0-28.04473-8.134261-48.819892-24.400736-62.321394-9.021467-7.688099-22.479991-11.529591-40.370453-11.529591L587.8055 373.657444zM598.453001 430.37112l24.399713 0c15.82236 0 23.51353 4.879124 23.069415 14.645558-0.444115 11.008728-5.545296 16.515139-15.305591 16.515139C617.009635 461.531817 606.28948 451.141166 598.453001 430.37112zM877.0563 398.276145l52.126194 95.351672 4.214998 7.479345c8.722662 15.994276 18.334577 23.99346 28.835745 23.99346 6.655584 0 12.124132-3.067872 16.414855-9.19236 4.28663-6.129604 6.432503-13.865799 6.432503-23.214724 0-9.766434-4.511757-22.644743-13.531178-38.639019l-83.181491-147.077753c-10.945283-19.320021-22.257933-28.979008-33.93795-28.979008-9.614985 0-17.745153 5.087878-24.400736 15.268752-6.65456 10.174734-9.981329 22.639626-9.981329 37.392632 0 3.739161 0.222057 7.580652 0.665149 11.529591l7.319709 56.089459-45.251623-91.300402c-9.465582-19.320021-19.963681-28.979008-31.497365-28.979008-9.909697 0-18.043958 5.398964-24.400736 16.20303-6.359848 10.799974-9.537214 24.718985-9.537214 41.756009 0 2.492774 0.072655 4.567016 0.222057 6.231935l6.210445 130.563638c0.887206 16.826224 4.027733 29.758768 9.426697 38.794561 5.395894 9.036817 12.755512 13.555737 22.070668 13.555737 13.898545 0 20.850887-10.701736 20.850887-32.095999 0-3.5345-0.149403-7.478322-0.444115-11.840676l-6.210445-87.250156 49.465598 99.402941c10.498098 21.189601 22.698978 31.783891 36.600593 31.783891 8.574283 0 15.377222-3.428076 20.406772-10.283204 5.025457-6.855128 7.541767-16.101723 7.541767-27.733645 0-4.780887-0.076748-8.311293-0.222057-10.595312L877.0563 398.276145z"  horiz-adv-x="1024" />

    
    <glyph glyph-name="check" unicode="&#58993;" d="M925.64953 686.195759c0 0-169.665191-105.809861-307.197544-235.768725-139.477658-131.802862-246.616794-287.958364-246.616794-287.958364l-210.801077 177.236634-86.264713-82.375126 345.05885-343.524914c0 0 129.140219 223.798089 277.827633 417.508929 114.815979 149.505036 257.873162 280.283568 257.873162 280.283568L925.64953 686.195759z"  horiz-adv-x="1024" />

    
    <glyph glyph-name="shoppingcart" unicode="&#58911;" d="M959.962521 668.696064c0 20.436448-16.71366 37.003775-37.32407 37.003775L295.485805 705.69984c-4.575202 0-8.952906-0.816598-13.001105-2.310625L248.894673 806.62546c-5.867638 17.501606-23.653723 27.754111-41.450041 24.846898-0.51677 0.01842-1.028423 0.038886-1.550309 0.038886L101.366665 831.511243c-20.615527 0-37.329187-16.571421-37.329187-37.003775 0-20.438495 16.71366-37.003775 37.329187-37.003775l85.064374 0 149.344377-458.993762L226.632647 164.834418c-12.976546-15.886829-10.502192-39.186488 5.528923-52.03819 10.087753-8.094352 23.137976-10.117428 34.657334-6.544043l633.414257 0c20.61962 0 37.334303 16.567327 37.334303 37.003775 0 20.433378-16.714683 37.003775-37.334303 37.003775L335.267856 180.259736l60.428278 74.003458 407.480528 0c20.36891 0 36.915771 16.169261 37.308721 36.264948 0.038886 0.107447 0.083911 0.221034 0.12382 0.328481L957.86679 642.155595c2.075265 6.220678 2.385327 12.592806 1.219781 18.59245C959.65246 663.31245 959.962521 665.96486 959.962521 668.696064L959.962521 668.696064zM774.45655 328.270744 404.539546 328.270744l-98.724489 303.421544 569.923224 0L774.45655 328.270744 774.45655 328.270744zM519.467065 402.273179c20.614503 0 37.328164 16.571421 37.328164 37.004799l0 96.207156c0 20.436448-16.71366 37.003775-37.328164 37.003775-20.614503 0-37.329187-16.567327-37.329187-37.003775l0-96.207156C482.137879 418.845623 498.852562 402.273179 519.467065 402.273179L519.467065 402.273179zM683.718967 402.273179c20.61962 0 37.329187 16.571421 37.329187 37.004799l0 96.207156c0 20.436448-16.709567 37.003775-37.329187 37.003775-20.614503 0-37.328164-16.567327-37.328164-37.003775l0-96.207156C646.390803 418.845623 663.104463 402.273179 683.718967 402.273179L683.718967 402.273179zM347.748099 54.448332c-32.991392 0-59.729359-26.505677-59.729359-59.207473 0-32.697703 26.737968-59.20338 59.729359-59.20338 32.990369 0 59.728336 26.505677 59.728336 59.20338C407.475412 27.942655 380.737444 54.448332 347.748099 54.448332L347.748099 54.448332zM810.647821 54.448332c-32.994462 0-59.734476-26.505677-59.734476-59.207473 0-32.697703 26.738991-59.20338 59.734476-59.20338 32.985252 0 59.724243 26.505677 59.724243 59.20338C870.372064 27.942655 843.633073 54.448332 810.647821 54.448332L810.647821 54.448332zM810.647821 54.448332"  horiz-adv-x="1024" />

    
    <glyph glyph-name="jujue" unicode="&#58938;" d="M829.184 699.936c-176.384 176.416-462.368 176.448-638.784 0-176.416-176.416-176.352-462.368 0-638.752 176.416-176.416 462.4-176.448 638.784 0C1005.6 237.568 1005.568 523.52 829.184 699.936L829.184 699.936zM243.616 114.368c-147.008 147.008-147.008 385.312 0 532.352 147.04 147.04 385.344 147.04 532.352 0.032 147.008-147.04 147.008-385.312-0.032-532.352C628.928-32.64 390.592-32.64 243.616 114.368L243.616 114.368zM788 60c-8.192 0-16.384 3.136-22.624 9.376L193.376 641.376c-12.512 12.512-12.512 32.736 0 45.248s32.736 12.512 45.248 0l572-572c12.512-12.512 12.512-32.736 0-45.248C804.352 63.136 796.16 60 788 60z"  horiz-adv-x="1024" />

    
    <glyph glyph-name="dingdan" unicode="&#58931;" d="M1017.771 384.669c0-280.666-227.523-508.191-508.191-508.191s-508.19 227.525-508.19 508.191c0 280.665 227.523 508.19 508.191 508.19s508.19-227.523 508.19-508.19zM266.86 308.41l0 125.753-74.816 0 0-41.387 32.474 0 0-102.194c0-11.461-2.653-20.375-7.958-26.742l23.558-32.474c13.157 14.222 39.052 34.065 77.681 59.534-2.336 16.34-4.14 32.79-5.411 49.346-20.377-14.859-35.553-25.469-45.526-31.836zM209.555 519.802c10.61-15.706 23.241-37.249 37.885-64.628l40.751 24.514c-14.644 23.558-28.441 44.038-41.387 61.443l-37.249-21.33zM296.786 478.733l105.059 0 0-174.462c0-6.581-1.329-11.807-3.98-15.68-2.653-3.875-5.996-6.287-10.029-7.243-4.034-0.955-10.72-1.433-20.057-1.433-13.478 0-28.229 0.582-44.253 1.751 4.88-15.493 8.913-31.941 12.098-49.346 50.723 0.318 80.252 2.097 88.583 5.332 8.33 3.238 14.644 8.783 18.943 16.635 4.298 7.854 6.447 18.251 6.447 31.2l0 193.246 57.305 0 0 43.616-210.118 0 0-43.616zM542.879 335.47l110.153 0 0-21.967-135.302 0 0-39.158 135.303 0 0-47.436 44.571 0 0 47.436 134.668 0 0 39.158-134.668 0 0 21.967 110.153 0 0 158.226-60.011 0c11.567 12.838 21.065 23.241 28.494 31.2l-48.073 17.191c-10.188-15.919-21.648-32.05-34.383-48.391l-63.99 0 20.057 8.913-33.11 38.839-38.205-17.191c7.745-9.87 15.281-20.057 22.603-30.563l-58.26 0 0-158.225zM584.903 456.767l68.13 0 0-25.787-68.13 0 0 25.787zM584.903 398.187l68.13 0 0-25.787-68.13 0 0 25.787zM765.733 430.979l-68.13 0 0 25.787 68.13 0 0-25.787zM697.603 372.4l0 25.787 68.13 0 0-25.787-68.13 0z"  horiz-adv-x="1024" />

    
    <glyph glyph-name="zengjia" unicode="&#58936;" d="M480 768C674.048 768 832 610.112 832 416c0-194.048-157.952-352-352-352S128 221.952 128 416C128 610.112 285.952 768 480 768M480 832C250.304 832 64 645.76 64 416 64 186.304 250.304 0 480 0S896 186.304 896 416C896 645.76 709.696 832 480 832L480 832zM704 448 512 448 512 640 448 640 448 448 256 448 256 384 448 384 448 192 512 192 512 384 704 384Z"  horiz-adv-x="1024" />

    
    <glyph glyph-name="fenxiao-o" unicode="&#58912;" d="M899.761542 172.29709c-19.197205 58.75102-49.323309 109.178476-89.660976 150.006306-34.140531 34.555992-75.46057 62.157603-122.811971 82.041446-58.181039 24.430388-110.962097 31.065499-136.538586 32.857306l0 47.856913c0 1.306761-0.091074 2.592032-0.249686 3.855814 80.979255 14.174823 142.723443 84.994705 142.723443 169.97099 0 95.148962-77.409967 172.558928-172.560975 172.558928-95.148962 0-172.558928-77.408943-172.558928-172.558928 0-84.55673 61.135321-155.098272 141.525152-169.758142-0.177032-1.332343-0.277316-2.688223-0.277316-4.068661l0-47.822121c-25.374898-1.737572-78.481367-8.293888-137.064565-32.893122-47.352424-19.88282-88.672463-47.485453-122.812994-82.041446-40.415438-40.906624-70.579405-91.450737-89.771493-150.349113-57.056427-12.192681-99.975892-62.991597-99.975892-123.633685 0-69.709595 56.713619-126.422191 126.424238-126.422191s126.424238 56.712596 126.424238 126.422191c0 56.629708-37.424317 104.68105-88.839262 120.722382 31.308022 83.117963 88.484175 142.881032 170.290261 177.83202 48.219163 20.600156 92.818896 26.857668 115.32547 28.757945l0-204.663082c-54.923859-13.752198-95.725083-63.521669-95.725083-122.648242 0-69.709595 56.713619-126.422191 126.424238-126.422191s126.424238 56.712596 126.424238 126.422191c0 59.126573-40.801224 108.896044-95.725083 122.648242l0 204.671268c22.197536-1.867532 65.29608-7.971547 112.767207-27.904509 83.037122-34.868101 140.951078-95.07733 172.486274-179.142874-50.699655-16.467027-87.456777-64.154071-87.456777-120.273151 0-69.709595 56.713619-126.422191 126.423215-126.422191 69.711642 0 126.425261 56.712596 126.425261 126.422191C1001.396212 109.546994 957.642753 160.741928 899.761542 172.29709zM231.177942 48.318552c0-35.854567-29.170337-65.023881-65.025927-65.023881s-65.025927 29.169314-65.025927 65.023881c0 35.856613 29.170337 65.027974 65.025927 65.027974S231.177942 84.175165 231.177942 48.318552zM409.502172 658.884841c0 61.293933 49.865661 111.160618 111.160618 111.160618 61.294957 0 111.162665-49.866685 111.162665-111.160618 0-61.293933-49.866685-111.160618-111.162665-111.160618C459.368857 547.724223 409.502172 597.590908 409.502172 658.884841zM585.076781 48.318552c0-35.854567-29.170337-65.023881-65.025927-65.023881s-65.025927 29.169314-65.025927 65.023881c0 35.856613 29.170337 65.027974 65.025927 65.027974S585.076781 84.175165 585.076781 48.318552zM874.969927-16.705329c-35.854567 0-65.024904 29.169314-65.024904 65.023881 0 35.856613 29.170337 65.027974 65.024904 65.027974 35.856613 0 65.026951-29.171361 65.026951-65.027974C939.997901 12.463985 910.826541-16.705329 874.969927-16.705329z"  horiz-adv-x="1024" />

    
    <glyph glyph-name="pingtaibaozhang" unicode="&#58926;" d="M246.279614 477.676519l0 36.796044c55.197136 35.252899 90.450035 96.596012 105.793488 183.988408l57.497529 0c-10.745738-52.140521-25.298176-94.29255-43.695175-126.487809l0-397.874753-57.500599 0L308.374858 512.176264c-10.740622-7.690146-27.594475-17.644869-50.593282-29.897937C253.178745 480.732112 249.33623 479.186919 246.279614 477.676519L246.279614 477.676519zM437.167153 493.777219 437.167153 677.764604l310.47724 0 0-108.094904c1.511423-52.139497-24.540929-77.437673-78.192873-75.893504l-48.296983 0 0-59.796898 165.591409 0 0-41.393759-80.495312 0c7.653307-61.343113 34.494629-111.938442 80.495312-151.790078l0-36.800138c-79.742159 38.310537-124.19765 101.19168-133.393079 188.590216l-32.19833 0 0-218.48713-59.797921 0L561.356616 392.586562l-32.196283 0c-10.746762-87.391373-55.987129-150.279678-135.690402-188.590216l0 36.800138c47.504944 41.397852 75.106582 91.994204 82.791611 151.790078l-82.791611 0 0 41.393759 167.886685 0 0 59.796898L437.167153 493.777219 437.167153 493.777219zM494.661611 532.871609l158.690232 0c26.054399-1.544169 38.308491 11.500938 36.797068 39.101553l0 66.696028L494.661611 638.66919 494.661611 532.871609 494.661611 532.871609zM932.296927 765.735168l-75.452459 65.405639-16.037255-7.885598c-161.273057-79.329766-291.130613-14.371312-315.53442-0.533143l-13.275351 7.520277-13.302981-7.529487c-24.38334-13.827937-154.200988-78.80788-315.474045 0.538259l-16.055674 7.890714-75.463716-65.425082 9.246595-18.677385c11.537777-23.258727 49.166793-103.944374 49.166793-165.271114 0-13.783934-4.920056-38.651298-10.605545-67.439972-10.145058-51.42523-22.724561-115.155716-22.724561-179.1144 0-125.173884 50.248428-205.827809 149.35154-239.711524 155.664316-53.211922 206.851115-101.944833 223.5044-126.249379l22.178115-32.392758 22.236444 32.357965c16.726963 24.290219 68.039629 73.03848 223.818555 126.284171 99.088786 33.883715 149.331074 114.537639 149.331074 239.711524 0 64.325028-13.143345 130.684388-22.720468 179.124633 0.004093-0.026606-0.176009 0.873903-0.176009 0.873903-5.598508 28.431539-10.432607 52.997028-10.432607 66.558905 0 61.191664 37.642319 141.987828 49.181119 165.29158L932.296927 765.735168 932.296927 765.735168zM869.889575 750.188076c-16.962324-37.09178-45.398979-108.324124-45.398979-168.416757 0-18.36937 5.007037-43.817971 11.338233-76.108399l0.186242-0.880043c9.711176-49.040926 21.787212-110.060675 21.787212-169.570024 0-104.597243-36.826743-165.920914-115.910916-192.944384-106.575294-36.45426-182.909843-76.774571-226.846518-119.839389l-3.143597-3.100618-3.14769 3.100618c-43.861974 43.098587-120.108518 83.399455-226.627531 119.839389-79.097476 27.02347-115.938546 88.347141-115.938546 192.944384 0 59.137889 12.062733 120.231315 21.75856 169.348989 6.468318 32.748868 11.573593 58.601676 11.573593 77.209476 0 60.193941-28.432563 131.363863-45.379537 168.416757l-1.391696 3.064802 22.36845 19.396769 2.611477-1.157359c156.01531-69.303412 284.367583-22.101367 332.300268 1.421372l1.986237 0.968048 1.954515-0.968048c47.965431-23.50739 176.336124-70.714552 332.328921-1.421372l2.606361 1.157359 22.384823-19.396769L869.889575 750.188076 869.889575 750.188076zM869.889575 750.188076"  horiz-adv-x="1024" />

    
    <glyph glyph-name="mynews" unicode="&#58913;" d="M404.138922 527.80522 260.324492 527.80522l0-35.944654 143.81443 0L404.138922 527.80522zM763.674485 653.651416 260.324492 653.651416l0-35.953863 503.349993 0L763.674485 653.651416zM458.069205 132.326027l305.606303 0L763.675508 527.80522 458.069205 527.80522 458.069205 132.326027zM494.023068 491.860567l233.69653 0 0-323.579653L494.023068 168.280914 494.023068 491.860567zM871.535051 833.418686 152.463925 833.418686c-19.85521 0-35.953863-16.09763-35.953863-35.953863l0-826.930669c0-19.854187 16.098653-35.95284 35.953863-35.95284l719.070102 0c19.85521 0 35.953863 16.09763 35.953863 35.95284L907.487891 797.464823C907.487891 817.321056 891.390261 833.418686 871.535051 833.418686zM871.535051-29.465846 152.463925-29.465846 152.463925 797.464823l719.070102 0L871.534028-29.465846zM404.138922 258.163013 260.324492 258.163013l0-35.954887 143.81443 0L404.138922 258.163013zM404.138922 348.046137 260.324492 348.046137l0-35.953863 143.81443 0L404.138922 348.046137zM404.138922 437.930283 260.324492 437.930283l0-35.953863 143.81443 0L404.138922 437.930283zM404.138922 168.27989 260.324492 168.27989l0-35.954887 143.81443 0L404.138922 168.27989z"  horiz-adv-x="1024" />

    
    <glyph glyph-name="youxiang" unicode="&#58959;" d="M515.566-93.147c-262.598 0-477.129 215.033-477.129 478.237 0 263.21 214.532 478.243 477.129 478.243 263.766 0 477.126-215.033 477.126-478.243 0-263.204-214.534-478.237-477.126-478.237zM515.566 816.332c-236.808 0-430.24-192.708-430.24-431.24 0-238.529 193.432-431.235 430.24-431.235 237.972 0 430.235 193.881 430.235 431.235 0 237.358-193.432 431.24-430.235 431.24zM788.093 161.913l-530.967 0c-29.409 0-53.343 24.648-53.343 55.09l0 336.132c0 30.425 23.935 55.134 53.343 55.134l530.967 0c29.53 0 53.343-24.709 53.343-55.134l0-336.132c0-30.442-23.813-55.09-53.343-55.09zM774.011 201.389l-165.99 152.183-27.192-24.648c-15.862-14.251-35.204-21.574-58.217-21.574-22.891 0-42.356 7.324-58.161 21.574l-27.193 24.648-165.985-152.183 502.74 0zM243.461 532.981l0-303.704 165.366 153.958-165.366 149.747zM269.892 568.792l211.739-193.83c18.483-17.019 32.167-25.471 40.98-25.471s22.497 8.452 40.98 25.471l211.739 193.83-505.435 0zM801.778 532.981l-165.366-149.747 165.366-153.958 0 303.704z"  horiz-adv-x="1024" />

    
    <glyph glyph-name="jiarugouwuche" unicode="&#58927;" d="M708.712709 396.459776c-23.7581-29.252231-48.683792-54.596456-68.064188-72.361051l0 198.6135 4.296863 0c-5.443989 16.670681-8.490372 34.461883-8.490372 52.954049 0 7.398504 0.624217 14.640442 1.562589 21.778003L249.672898 597.444277c-10.706853 0-20.916379-4.584412-28.001751-12.608156-7.084349-8.023744-10.393721-18.729573-9.090029-29.330002l34.746362-280.038998c2.291183-18.729573 18.207687-32.794917 37.090756-32.794917l362.586039 0c8.647961 0 17.036002 3.021823 23.703865 8.516977 4.974291 4.088108 81.893148 68.24429 136.175449 153.811108-36.594453 0.053212-70.405513 11.722996-98.171903 31.388894L708.711685 396.459776zM359.959723 317.430862l-42.537815 0L291.973306 522.713248l67.986417 0L359.959723 317.430862zM474.671325 317.430862l-65.769936 0L408.901389 522.713248l65.769936 0L474.671325 317.430862zM591.704808 317.430862l-68.11433 0L523.590478 522.713248l68.11433 0L591.704808 317.430862zM305.753147 680.771077c0 20.655436-16.748453 37.377282-37.377282 37.377282L125.660466 718.148359c-20.630876 0-37.379329-16.720823-37.379329-37.377282 0-20.6319 16.748453-37.352723 37.379329-37.352723L268.375865 643.418354C289.004695 643.418354 305.753147 660.139178 305.753147 680.771077zM332.740802 210.582345c-39.255049 0-71.0328-31.828916-71.0328-71.02973 0-39.228443 31.777751-71.006194 71.0328-71.006194 39.22742 0 71.00517 31.777751 71.00517 71.006194C403.745972 178.753429 371.968222 210.582345 332.740802 210.582345zM661.488151 210.582345c-39.23049 0-71.00824-31.828916-71.00824-71.02973 0-39.228443 31.777751-71.006194 71.00824-71.006194 39.22742 0 71.02973 31.777751 71.02973 71.006194C732.518904 178.753429 700.716594 210.582345 661.488151 210.582345zM807.146579 704.240605c-65.457828 0-119.351272-48.944735-127.45074-112.162546-0.677429-5.367241-1.173732-10.837836-1.173732-16.411785 0-13.933337 2.317789-27.347858 6.382361-39.902802 8.673543-26.544563 25.734104-49.233308 48.056506-65.042365 20.942985-14.821567 46.418192-23.627117 73.976852-23.627117 0.077771 0 0.130983-0.023536 0.207731-0.023536 70.979588 0 128.571261 57.565067 128.571261 128.594797C935.717839 646.648932 878.126166 704.240605 807.146579 704.240605zM873.932658 553.683611l-44.179199 0 0-46.520523-45.218878 0 0 46.520523-44.201711 0 0 44.332694 44.201711 0 0 46.107107 45.218878 0 0-46.107107 44.179199 0L873.932658 553.683611z"  horiz-adv-x="1024" />

    
    <glyph glyph-name="history" unicode="&#58960;" d="M618.76 360.745l-108.874 0 0 183.924c0 20.084-15.855 35.939-35.939 35.939s-35.939-15.855-35.939-35.939l0-219.863c0-20.084 15.855-35.939 35.939-35.939l144.813 0c20.084 0 35.939 15.855 35.939 35.939 1.057 20.084-15.855 35.939-35.939 35.939zM512 859.665c-263.201 0-475.665-213.521-475.665-475.665 0-263.201 212.463-475.665 475.665-475.665s475.665 212.463 475.665 475.665c0 262.144-212.463 475.665-475.665 475.665zM507.772-0.76c-212.463 0-383.703 172.296-383.703 383.703s172.296 383.703 383.703 383.703c212.463 0 384.76-171.239 384.76-383.703s-172.296-383.703-384.76-383.703z"  horiz-adv-x="1024" />

    
    <glyph glyph-name="message" unicode="&#58914;" d="M768 512C732.672 512 704 483.328 704 448 704 412.672 732.672 384 768 384 803.328 384 832 412.672 832 448 832 483.328 803.328 512 768 512L768 512ZM512 64C474.624 64 438.528 68.352 403.84 75.744L253.184-14.816 255.2 133.632C139.712 203.072 64 317.888 64 448 64 660.064 264.576 832 512 832 759.424 832 960 660.064 960 448 960 235.904 759.424 64 512 64L512 64ZM512 896C229.248 896 0 695.392 0 448 0 306.592 75.04 180.672 192 98.592L192-128 416.288 8.096C447.328 2.976 479.264 0 512 0 794.752 0 1024 200.576 1024 448 1024 695.392 794.752 896 512 896L512 896ZM256 512C220.672 512 192 483.328 192 448 192 412.672 220.672 384 256 384 291.328 384 320 412.672 320 448 320 483.328 291.328 512 256 512L256 512ZM512 512C476.672 512 448 483.328 448 448 448 412.672 476.672 384 512 384 547.328 384 576 412.672 576 448 576 483.328 547.328 512 512 512L512 512Z"  horiz-adv-x="1024" />

    
    <glyph glyph-name="daipingjia" unicode="&#58944;" d="M179.2 128c-36.4288 0-71.0144-11.8784-102.4-25.6l0-2.3552c-14.8736-5.2992-25.6-19.3536-25.6-36.0448s10.7264-30.7456 25.6-36.0448L76.8 25.6c0.7936 0.5888 1.6384 1.024 2.4576 1.6128C82.56 26.24 85.9904 25.6 89.6 25.6c14.6432 0 27.2128 8.2944 33.6896 20.352C144.6144 50.6112 167.7312 51.2 192 51.2c73.216 0 136.704-41.0624 169.088-101.3248C359.424-54.4512 358.4-59.1104 358.4-64c0-21.1968 17.1776-38.4 38.4-38.4s38.4 17.2032 38.4 38.4c0 4.5056-0.9216 8.7808-2.3552 12.8L435.2-51.2C402.5856 52.6592 293.8368 128 179.2 128zM947.2 742.4c-26.0864 26.0864-230.0928-1.3824-256-25.6-27.392 74.2144-78.4128 127.3344-179.2 179.2-101.9392-54.0928-151.424-104.0896-179.2-179.2C305.4336 740.8896 128 767.4624 76.8 742.4c0-288.768 110.848-621.1584 409.6-639.1296L486.4-102.4c0-14.1568 11.4688-25.6 25.6-25.6 14.1568 0 25.6 11.4432 25.6 25.6l0 205.6192C857.1648 120.0896 947.2 453.12 947.2 742.4zM512 179.2C261.376 179.2 153.6 426.1376 153.6 665.6c51.2256 25.6256 181.9904-28.3648 204.8-51.2 21.888 60.5696 73.2928 161.1776 153.6 204.8 79.4368-41.8304 131.9936-144.9472 153.6-204.8 25.1904 25.9584 178.0992 77.9008 204.8 51.2C870.4 426.1376 780.2624 179.2 512 179.2zM947.2 100.0448 947.2 102.4c-31.3856 13.7216-65.9712 25.6-102.4 25.6-114.6368 0-223.3856-75.3408-256-179.2l2.3552 0C589.7216-55.2192 588.8-59.4944 588.8-64c0-21.1968 17.2032-38.4 38.4-38.4s38.4 17.2032 38.4 38.4c0 4.8896-0.9984 9.5488-2.6624 13.8752C695.296 10.1376 758.8096 51.2 832 51.2c24.2688 0 47.3856-0.5888 68.7104-5.248C907.2128 33.8944 919.7824 25.6 934.4 25.6c3.6096 0 7.0144 0.64 10.3424 1.6128C945.5616 26.624 946.4064 26.1888 947.2 25.6l0 2.3552c14.8736 5.2992 25.6 19.3536 25.6 36.0448S962.0736 94.7456 947.2 100.0448z"  horiz-adv-x="1024" />

    
    <glyph glyph-name="camera" unicode="&#58910;" d="M512 520.149333c-94.236444 0-170.652444-76.401778-170.652444-170.638222S417.763556 178.887111 512 178.887111c94.250667 0 170.652444 76.387556 170.652444 170.624S606.250667 520.149333 512 520.149333zM227.456 733.710222 128.099556 733.710222l0-43.050667 99.356444 0L227.456 733.710222zM920.945778 648.106667 735.032889 648.106667c-14.108444 10.154667-30.848 28.074667-46.236444 59.847111-18.673778 38.556444-85.987556 39.751111-85.987556 39.751111L386.076444 747.704889c0 0-22.158222 5.504-48.241778-39.310222-17.664-30.350222-33.621333-49.152-48.668444-60.288L103.04 648.106667c-33.479111 0-60.586667-28.743111-60.586667-64.156444l0-497.180444c0-35.427556 27.107556-64.156444 60.586667-64.156444l817.905778 0c33.479111 0 60.600889 28.728889 60.600889 64.156444L981.546667 583.964444C981.546667 619.377778 954.410667 648.106667 920.945778 648.106667zM511.886222 135.964444c-117.788444 0-213.276444 95.516444-213.276444 213.333333s95.488 213.333333 213.276444 213.333333c117.774222 0 213.276444-95.516444 213.276444-213.333333S629.660444 135.964444 511.886222 135.964444zM817.720889 520.092444c-19.598222 0-35.498667 15.943111-35.498667 35.612444 0 19.683556 15.900444 35.626667 35.498667 35.626667 19.626667 0 35.527111-15.943111 35.527111-35.626667C853.248 536.035556 837.347556 520.092444 817.720889 520.092444z"  horiz-adv-x="1024" />

    
    <glyph glyph-name="save" unicode="&#58916;" d="M873.531 597.561 727.89 745.219C715.481 757.799 691.095 768 673.424 768L192 768c-35.341 0-64-28.651-64-63.994l0-640.012C128 28.647 156.651 0 191.994 0l640.012 0C867.353 0 896 28.654 896 64.002L896 542.775C896 560.447 885.94 584.979 873.531 597.561zM320 704l256 0 0-176.002c0-8.835-7.165-15.998-16.002-15.998L336.002 512c-8.838 0-16.002 7.164-16.002 15.998L320 704zM704 64 320 64 320 239.995c0 8.84 7.159 16.005 15.996 16.005l352.008 0c8.834 0 15.996-7.169 15.996-16.005L704 64zM832 96.008C832 78.33 817.679 64 800.002 64L768 64 768 287.996C768 305.668 753.672 320 735.996 320L288.004 320C270.329 320 256 305.672 256 287.996L256 64l-32.002 0C206.326 64 192 78.321 192 95.998L192 672.002C192 689.674 206.335 704 223.991 704L256 704l0-224.005C256 462.326 270.326 448 287.997 448l320.006 0C625.677 448 640 462.324 640 479.995L640 704l17.174 0c8.842 0 21.036-5.096 27.24-11.387L820.77 554.37c6.202-6.289 11.23-18.553 11.23-27.392L832 96.008zM480 544c17.673 0 32 14.327 32 32l0 64c0 17.673-14.327 32-32 32s-32-14.327-32-32l0-64C448 558.327 462.327 544 480 544z"  horiz-adv-x="1024" />

    
    <glyph glyph-name="daifukuan" unicode="&#58917;" d="M845.598844 773.337309l-667.195641 0c-61.60815 0-111.35925-49.76338-111.35925-111.150496l0-556.372603c0-61.255109 49.856501-111.150496 111.35925-111.150496l667.195641 0c61.606103 0 111.358227 49.767474 111.358227 111.150496l0 83.517135 0 389.337309 0 83.517135C956.957071 723.440899 907.099547 773.337309 845.598844 773.337309zM901.337309 244.951107 623.476931 244.951107c-30.849612 0-55.857169 24.680099-55.857169 55.609529L567.619762 467.443457c0 30.709419 25.085328 55.606459 55.857169 55.606459l277.860379 0L901.337309 244.951107zM623.469767 578.668655c-61.458747 0-111.469767-49.889247-111.469767-111.239524l0-166.859285c0-61.350277 50.011021-111.239524 111.469767-111.239524l277.867542 0 0-111.219057c0-15.371082-12.229532-27.829835-27.711132-27.829835L150.375869 50.281429c-15.303544 0-27.713178 12.44545-27.713178 27.829835L122.662691 689.887712c0 15.371082 12.231579 27.829835 27.713178 27.829835l723.249285 0c15.303544 0 27.711132-12.44545 27.711132-27.829835l0-111.219057L623.469767 578.668655zM762.288416 300.570869c46.078455 0 83.429131 37.352723 83.429131 83.429131s-37.350676 83.429131-83.429131 83.429131c-46.076408 0-83.429131-37.352723-83.429131-83.429131S716.210985 300.570869 762.288416 300.570869zM762.288416 411.810393c15.331173 0 27.809369-12.465916 27.809369-27.809369 0-15.344476-12.479219-27.809369-27.809369-27.809369-15.331173 0-27.809369 12.465916-27.809369 27.809369C734.478024 399.344476 746.957243 411.810393 762.288416 411.810393z"  horiz-adv-x="1024" />

    
    <glyph glyph-name="guanbi" unicode="&#58986;" d="M511.999998 801.816628c277.140604 0 501.816627-224.675601 501.816627-501.816627 0-277.140604-224.675601-501.816627-501.816627-501.816627-277.140604 0-501.816627 224.675601-501.816627 501.816627 0 277.140604 224.675601 501.816627 501.816627 501.816627zm156.222997-320.022572c0-7.617163 2.922626-15.26488 8.716985-21.059205l0-0.010183c43.829356-43.869814 68.310159-102.902899 68.310159-164.929867 0-128.819535-104.430605-233.260255-233.260255-233.260255-128.819535 0-233.25014 104.450834-233.25014 233.260255 0 62.026968 24.480803 121.049517 68.300044 164.929867l0.010183 0.010183c5.804524 5.794325 8.706786 13.431885 8.706786 21.059205 0 7.627362-2.912444 15.254681-8.706786 21.069404-5.794325 5.784169-13.442042 8.706786-21.059205 8.706786-7.637518 0-15.285235-2.912444-21.089759-8.706786-55.092236-55.12258-85.764357-129.125076-85.764357-207.068843 0-161.732431 131.120997-292.843314 292.853429-292.843314 161.742546 0 292.853429 131.100768 292.853429 292.843314 0 77.943345-30.672331 151.946263-85.764357 207.068843-5.804524 5.794325-13.442042 8.706786-21.07956 8.706786-7.627362 0-15.26488-2.922626-21.059205-8.706786-5.804524-5.804524-8.716985-13.442042-8.716985-21.069404zm-177.312924 106.528093c-5.376808-5.387007-8.706786-12.841243-8.706786-21.069404l0-271.45796c0-8.228161 3.340147-15.692595 8.727141-21.07956l0-0.010183c5.366652-5.376808 12.831044-8.716985 21.059205-8.716985 8.23836 0 15.702752 3.340147 21.069404 8.716985l0 0.010183c5.387007 5.387007 8.727141 12.851399 8.727141 21.07956l0 271.45796c0 8.228161-3.340147 15.692595-8.716985 21.069404-5.387007 5.376808-12.841243 8.716985-21.07956 8.716985-8.228161 0-15.692595-3.340147-21.069404-8.716985l-0.010183 0z"  horiz-adv-x="1024" />

    
    <glyph glyph-name="luxian" unicode="&#58965;" d="M513.081123 891.803421c-281.049001 0-508.851287-227.857545-508.851287-508.935198 0-280.963043 227.801263-508.820588 508.851287-508.820588 281.047977 0 508.850264 227.857545 508.850264 508.820588C1021.931387 663.945877 794.130124 891.803421 513.081123 891.803421L513.081123 891.803421zM513.081123-73.803657c-252.242931 0-456.757838 204.485231-456.757838 456.67188 0 252.243955 204.514907 456.730209 456.757838 456.730209 252.157997 0 456.644251-204.486254 456.644251-456.730209C969.726398 130.681574 765.240143-73.803657 513.081123-73.803657L513.081123-73.803657zM555.853275 608.303602c0 22.75219-19.709901 41.11235-44.011376 41.11235-24.329105 0-43.982724-18.36016-43.982724-41.11235 0-22.750143 19.653619-41.166585 43.982724-41.166585C536.144398 567.137017 555.853275 585.553459 555.853275 608.303602L555.853275 608.303602zM702.757067 444.19701c0 0-13.600763-36.493146 0-40.998763 16.500812-5.462408 58.737776 13.629415 58.737776 13.629415L761.494842 239.034351c0 0-149.296281-56.93471-161.516604-54.627155-12.248975 2.252297-161.545256 61.498656-176.215374 54.627155-14.69877-6.813173-161.516604-40.942481-161.516604-40.942481L262.246261 375.8289c0 0 67.946508 15.542998 73.465199 27.369348 6.532787 14.304797 4.843308 47.813982-44.095287 27.313066-48.939619-20.49887-73.408917-41.055045-73.408917-41.055045l0-218.733747c0 0 14.69877-36.493146 44.040029-27.314089 29.369911 9.066493 161.516604 54.683437 161.516604 54.683437s156.617014-52.429093 176.215374-54.683437c19.569708-2.365884 204.907856 50.51551 205.556633 68.312852 1.998517 60.089563 2.421142 234.728022 0 246.161423C803.112706 469.258803 732.125955 453.376067 702.757067 444.19701L702.757067 444.19701zM511.842922 321.14444c0 0 161.488974 149.183717 161.488974 279.669584 0 130.599454-161.488974 130.599454-161.488974 130.599454s-161.516604 0-161.516604-130.599454C350.326319 470.328158 511.842922 321.14444 511.842922 321.14444L511.842922 321.14444zM398.702096 618.666624c1.099031 4.335748 2.816139 8.447393 4.618181 12.615319 0.6191 1.408069 0.985444 2.984984 1.689479 4.335748 1.858324 3.830235 4.335748 7.266497 6.842849 10.870582 1.210571 1.688455 2.196015 3.547803 3.491521 5.237281 1.971911 2.477424 4.365424 4.619204 6.532787 6.870478 2.534729 2.591011 4.983501 5.238304 7.856945 7.659447 1.294482 1.013073 2.703575 1.858324 3.998057 2.759857 4.251837 3.322675 8.673543 6.4192 13.600763 9.066493 0.141216 0.113587 0.310062 0.226151 0.50756 0.281409 11.827373 6.477528 25.427112 11.263531 40.519856 13.741979 7.575536 1.238201 15.402805 1.971911 23.343661 1.971911l0.141216 0 0.084934 0c8.16496 0 16.078187-0.732687 23.765263-1.971911 4.139274-0.732687 7.913227-1.971911 11.79872-2.984984 3.378957-0.957815 6.955412-1.632173 10.135848-2.758834 3.266393-1.182942 6.223748-2.703575 9.349949-4.111644 3.716648-1.576915 7.460925-3.152806 10.896164-5.124717 1.549286-0.957815 2.928702-1.914606 4.393054-2.928702 21.766746-13.628392 37.479613-33.227776 42.829458-55.979966 1.407046-5.743818 2.139733-11.543917 2.139733-17.401322 0-93.204775-115.394147-223.7459-115.394147-223.7459S396.53371 507.609249 396.53371 600.814024C396.53371 606.840274 397.294027 612.809219 398.702096 618.666624L398.702096 618.666624zM398.702096 618.666624"  horiz-adv-x="1024" />

    
    <glyph glyph-name="daifahuo" unicode="&#58918;" d="M287.461549 383.98465l-62.002123 0c-17.656125 0-31.989575 14.332427-31.989575 31.989575 0 17.661242 14.33345 31.993668 31.989575 31.993668l62.002123 0c17.662265 0 31.994692-14.332427 31.994692-31.993668C319.456241 398.317077 305.123814 383.98465 287.461549 383.98465L287.461549 383.98465zM882.930589 767.889227 141.931035 767.889227c-42.710754 0-77.423347-34.678824-77.423347-77.358879l0-154.585751 0-8.473999 0-457.904964c0-38.298258 31.92613-69.456908 71.15048-69.456908l753.511519 0c39.251979 0 71.149457 31.15865 71.149457 69.456908L960.319144 527.470599 960.319144 690.530348C960.290491 733.210403 925.576875 767.889227 882.930589 767.889227L882.930589 767.889227zM896.307248 690.530348l0-131.071198L672.870386 559.459151 672.870386 703.907007l210.060203 0C890.293277 703.907007 896.307248 697.893037 896.307248 690.530348L896.307248 690.530348zM447.104479 703.907007l161.782663 0L608.887143 343.544613l-70.767763 28.216645c-7.708566 3.103688-16.34527 3.042289-23.99346-0.127913l-67.020416-27.511587L447.105502 703.907007 447.104479 703.907007zM128.490931 690.530348c0 7.361665 6.014994 13.375635 13.440104 13.375635l241.185085 0 0-144.446833L128.490931 559.459151 128.490931 690.530348 128.490931 690.530348zM889.141034 64.094016 135.658168 64.094016c-4.222161 0-7.167237 2.87856-7.167237 5.472642L128.490931 495.475907l254.625188 0 0-199.12106c0-10.650571 5.310959-20.633946 14.176884-26.585495 5.339612-3.547803 11.544941-5.40408 17.817808-5.40408 4.095271 0 8.253988 0.76748 12.154831 2.39863l99.209536 40.72861 102.567004-40.856523c9.851369-3.963265 21.020756-2.717901 29.817096 3.231601 8.762571 5.984295 14.010085 15.871479 14.010085 26.488281L672.869363 495.475907 896.307248 495.475907l0-425.90925C896.307248 66.971553 893.363196 64.094016 889.141034 64.094016L889.141034 64.094016zM889.141034 64.094016"  horiz-adv-x="1024" />

    
    <glyph glyph-name="daishouhuo" unicode="&#58932;" d="M351.04161 320.50999 222.978932 320.50999c-17.674545 0-32.017204 14.31196-32.017204 32.018228 0 17.672498 14.34266 32.015158 32.017204 32.015158l96.048543 0 0 96.046496c0 17.674545 14.343683 32.019251 32.013111 32.019251 17.674545 0 32.017204-14.344706 32.017204-32.019251l0-128.061654C383.058814 334.821951 368.716154 320.50999 351.04161 320.50999L351.04161 320.50999zM701.3623 229.585141c-61.983703 0-113.724111-43.314505-127.362736-101.169167L450.133466 128.415974c-13.576203 57.917084-65.379033 101.263311-127.392412 101.263311-72.326259 0-131.168412-58.814524-131.168412-131.134643 0-72.38868 58.842153-131.293255 131.168412-131.293255 60.410881 0 110.900809 41.364083 126.044718 97.102548l126.498042 0c15.111163-55.738465 65.599044-97.042173 126.078487-97.042173 72.257697 0 131.071198 58.81657 131.071198 131.136689C832.433498 170.775734 773.619998 229.585141 701.3623 229.585141L701.3623 229.585141zM322.770729 31.308309c-37.010939 0-67.138096 30.16195-67.138096 67.26601 0 36.983309 30.098505 67.110467 67.138096 67.110467 37.009915 0 67.10842-30.099529 67.10842-67.110467C389.87915 61.469236 359.780645 31.308309 322.770729 31.308309L322.770729 31.308309zM701.3623 31.371754c-36.981263 0-67.10842 30.097482-67.10842 67.10842s30.097482 67.104327 67.10842 67.104327c36.942377 0 67.040882-30.093389 67.040882-67.104327S738.338447 31.371754 701.3623 31.371754L701.3623 31.371754zM863.327112 800.749636 398.809543 800.749636c-43.99091 0-79.781044-35.794228-79.781044-79.784114l0-92.555999-194.754612-97.872075c-1.378393-0.708128-2.720971-1.50426-4.001127-2.403746-36.116569-25.390273-56.029084-64.99427-56.029084-111.575168l0-322.148048c0-17.704221 14.343683-32.010041 32.018228-32.010041 17.670451 0 32.013111 14.305821 32.013111 32.010041L128.275014 416.558533c0 25.038256 9.091052 44.536332 27.054169 57.916061l210.090902 105.555058c1.440815 0.709151 2.368954 1.988284 3.64911 2.882654 1.885953 1.314948 3.774977 2.495844 5.314029 4.161786 1.407046 1.538029 2.335185 3.331885 3.425006 5.061272 1.088798 1.729387 2.242064 3.326768 2.974751 5.28026 0.801249 2.179642 1.026376 4.417613 1.348718 6.693446 0.25378 1.567705 0.927115 2.945075 0.927115 4.542456L383.058814 720.965521c0 8.67559 7.074116 15.754822 15.750729 15.754822l464.517569 0c17.640776 0 31.984459-14.602579 31.984459-32.531927l0-607.788623c0-17.702174 14.312984-32.016181 32.017204-32.016181 17.705244 0 32.018228 14.314007 32.018228 32.016181L959.347003 704.188416C959.347003 757.434108 916.249439 800.749636 863.327112 800.749636L863.327112 800.749636zM863.327112 800.749636"  horiz-adv-x="1024" />

    
    <glyph glyph-name="xiangbao" unicode="&#58961;" d="M514.108-90.519c-262.956 0-476.131 213.172-476.131 476.132 0 262.956 213.175 476.132 476.131 476.132 262.961 0 476.132-213.175 476.132-476.132 0.001-262.961-213.171-476.132-476.132-476.132l0 0zM514.108 815.775c-237.568 0-430.161-192.594-430.161-430.161 0-237.569 192.594-430.155 430.161-430.155 237.569 0 430.155 192.586 430.155 430.155 0.001 237.567-192.586 430.161-430.155 430.161l0 0zM851.469 243.34l-321.051-227.694c-2.266-1.638-4.898-2.444-7.575-2.444-2.079 0-4.149 0.477-6.069 1.433-0.652 0.385-1.156 0.835-1.738 1.267l-0.534-0.255-321.078 227.737-5.578 10.702 0 221.909 0.879 0.435 0 0.171c-0.026 4.267 1.969 8.299 5.394 10.774l175.118 126.284c1.299 0.881 2.719 1.517 4.149 1.892l39.779 28.79-83.322 59.074c-4.713 3.339-6.664 9.341-4.873 14.805 1.807 5.496 6.982 9.138 12.781 9.039l182.375-3.618c2.656-0.086 5.204-0.863 7.342-2.426l321.092-227.74c2.198-1.575 3.511-3.861 4.351-6.302 2.502-2.65 3.611-5.856 3.456-9.414 0.087-0.654 0.664-1.113 0.664-1.765l0-221.882c0.001-4.296-2.063-8.301-5.563-10.773l0 0zM214.125 260.85l294.798-209.116 0 189.734-294.798 209.03 0-189.65zM367.634 580.125l-143.245-103.322 298.455-211.731 143.246 103.317-298.456 211.736zM515.547 697.426l-135.699 2.749 283.002-200.772 135.693-2.688-282.997 200.712zM830.709 450.54l-294.723-209.073 0-189.645 294.723 209.025 0 189.694zM242.647 386.625l224.699-159.426 0-102.756-224.699 159.386 0 102.796z"  horiz-adv-x="1024" />

    
    <glyph glyph-name="dingwei" unicode="&#58962;" d="M516.934 857.209c-261.938 0-475.02-214.158-475.02-477.42 0-263.257 213.081-472.615 475.02-472.615 261.933 0 475.015 209.359 475.015 472.615 0 263.265-213.081 477.42-475.015 477.42zM516.933-44.01c-235.385 0-426.202 190.818-426.202 426.202s190.818 426.203 426.202 426.203 426.203-190.818 426.203-426.203-190.818-426.202-426.203-426.202zM505.561 722.447c-103.693 0-187.754-84.061-187.754-187.754s187.754-420.85 187.754-420.85 187.754 317.157 187.754 420.85c0 103.694-84.06 187.754-187.754 187.754zM505.561 395.756c-76.733 0-138.937 62.204-138.937 138.938s62.203 138.938 138.937 138.938c76.735 0 138.939-62.204 138.939-138.938s-62.205-138.938-138.939-138.938z"  horiz-adv-x="1024" />

    
    </font>
</defs>
</svg>
